<svg width="272" height="138" viewBox="0 0 272 138" fill="none" xmlns="http://www.w3.org/2000/svg">
<g clip-path="url(#clip0_205_2)">
<mask id="mask0_205_2" style="mask-type:luminance" maskUnits="userSpaceOnUse" x="-34" y="7" width="185" height="185">
<path d="M-33.8253 191.572H150.453V7.64767H-33.8253V191.572Z" fill="white"/>
</mask>
<g mask="url(#mask0_205_2)">
<path fill-rule="evenodd" clip-rule="evenodd" d="M21.4683 88.2712C22.3056 92.0619 24.0283 95.6552 26.1949 98.8566C28.3109 102.106 31.0682 104.913 34.2683 107.027C40.7176 111.361 48.6922 112.739 56.3242 112.147C60.1136 111.853 63.9042 110.966 67.3016 109.195C70.6976 107.473 73.6522 104.913 75.9656 101.907C78.3269 98.8566 80.0522 95.4112 81.3802 91.7672C82.6602 88.1739 83.5962 84.3832 83.9402 80.5912V80.5432C83.9896 80.1006 84.3829 79.7539 84.8256 79.8046C85.2696 79.8539 85.6149 80.2472 85.5642 80.6899C84.8256 88.6659 82.3162 96.5432 77.3442 102.991C74.8816 106.142 71.7323 108.85 68.0882 110.671C64.4456 112.591 60.4082 113.478 56.4202 113.822C52.4336 114.069 48.4456 113.773 44.5576 112.837C40.6669 111.951 36.8776 110.327 33.6282 108.013C27.0309 103.386 22.6989 96.0006 21.1736 88.2712C21.1736 88.2219 21.2229 88.1739 21.3203 88.1232C21.3709 88.1232 21.4189 88.1739 21.4189 88.2219L21.4683 88.2712Z" fill="#632C24"/>
</g>
<mask id="mask1_205_2" style="mask-type:luminance" maskUnits="userSpaceOnUse" x="-34" y="7" width="185" height="185">
<path d="M-33.8253 191.572H150.453V7.64767H-33.8253V191.572Z" fill="white"/>
</mask>
<g mask="url(#mask1_205_2)">
<path fill-rule="evenodd" clip-rule="evenodd" d="M52.4335 73.3547C48.1509 73.4534 43.9162 73.7 39.6829 74.192C35.4509 74.7334 31.2162 75.324 27.1789 76.604C26.1962 76.9494 25.2109 77.344 24.3229 77.8347C23.3895 78.3267 22.5029 78.9187 22.0095 79.7054C21.4682 80.4947 21.4682 81.528 21.9615 82.364C22.4042 83.2014 23.2415 83.8414 24.1269 84.3827C25.8989 85.416 27.9189 86.0067 29.9855 86.5C32.0029 86.9907 34.1202 87.3854 36.2375 87.632C40.4229 88.2227 44.6549 88.4694 48.8895 88.616C51.0562 88.716 53.1722 88.764 55.2882 88.716C57.3575 88.716 59.5229 88.5174 61.5909 88.3214C65.8229 87.8787 70.1082 87.2867 74.1922 86.2534C76.2122 85.7614 78.2309 85.1214 80.1002 84.284C81.8722 83.4467 83.7442 82.1667 83.8922 80.5427H83.9402C83.9402 80.052 84.3829 79.7547 84.8269 79.8054C85.2695 79.8534 85.5642 80.248 85.5162 80.6907C85.3682 82.0694 84.5309 83.1507 83.6455 83.8907C82.7095 84.6774 81.7242 85.22 80.7402 85.6627C78.7215 86.5987 76.6042 87.1894 74.5375 87.68C70.3042 88.6654 66.0215 89.2067 61.7389 89.6014C59.5709 89.7974 57.4562 89.9454 55.2882 89.9454C53.1229 89.9454 51.0055 89.896 48.8895 89.7974C44.6069 89.5507 40.3242 89.256 36.0895 88.616C33.9722 88.3214 31.8549 87.9267 29.7389 87.3854C27.6722 86.844 25.6029 86.204 23.6842 85.072C22.7482 84.4814 21.8135 83.792 21.2722 82.708C20.6815 81.724 20.6815 80.296 21.3709 79.312C22.0589 78.3267 22.9949 77.736 23.9802 77.1947C24.9642 76.7027 25.9495 76.3094 26.9829 76.0134C31.1175 74.7334 35.4002 74.0947 39.6335 73.7C43.8682 73.2574 48.1509 73.06 52.4335 73.0107C52.4842 73.0107 52.5815 73.06 52.5815 73.1587C52.5815 73.2574 52.5322 73.3547 52.4335 73.3547Z" fill="#632C24"/>
</g>
<mask id="mask2_205_2" style="mask-type:luminance" maskUnits="userSpaceOnUse" x="-34" y="7" width="185" height="185">
<path d="M-33.8253 191.572H150.453V7.64767H-33.8253V191.572Z" fill="white"/>
</mask>
<g mask="url(#mask2_205_2)">
<path fill-rule="evenodd" clip-rule="evenodd" d="M90.0936 32.7908C90.0443 32.7908 89.9456 32.7908 89.8976 32.8402C89.6509 32.8895 89.5029 33.0375 89.3549 33.2335L74.1923 59.2268C74.0443 59.4228 74.0443 59.6695 74.095 59.8682C74.1443 60.1122 74.2909 60.2602 74.4883 60.4082L78.1803 62.5242C78.3269 62.6722 78.5736 62.6722 78.7723 62.6242C79.0176 62.5748 79.2149 62.4268 79.3123 62.2295L94.4749 36.1868C94.6229 36.0402 94.6229 35.7935 94.5749 35.5975C94.5243 35.3495 94.3763 35.1548 94.1803 35.0562L90.5363 32.9388C90.3883 32.8402 90.2416 32.7908 90.0936 32.7908ZM78.5736 63.0668C78.3776 63.0668 78.1309 63.0175 77.9349 62.8708L74.2909 60.7535C73.9963 60.5548 73.8003 60.3108 73.7003 59.9655C73.6016 59.6695 73.6523 59.3255 73.8483 59.0308L89.0109 33.0375C89.2083 32.7415 89.4549 32.5442 89.7989 32.4468C90.0936 32.3482 90.4389 32.3975 90.7349 32.5442L94.3763 34.7095C94.6709 34.8588 94.8696 35.1548 94.9683 35.4495C95.0656 35.7935 95.0176 36.1388 94.8696 36.4348L79.6576 62.4268C79.5096 62.7228 79.2149 62.9188 78.9203 63.0175C78.7723 63.0668 78.6736 63.0668 78.5736 63.0668Z" fill="#632C24"/>
</g>
<mask id="mask3_205_2" style="mask-type:luminance" maskUnits="userSpaceOnUse" x="-34" y="7" width="185" height="185">
<path d="M-33.8253 191.572H150.453V7.64767H-33.8253V191.572Z" fill="white"/>
</mask>
<g mask="url(#mask3_205_2)">
<path fill-rule="evenodd" clip-rule="evenodd" d="M77.1466 62.0332L74.9719 60.7692L91.0786 33.0372L93.2533 34.3012L77.1466 62.0332Z" fill="#632C24"/>
</g>
<mask id="mask4_205_2" style="mask-type:luminance" maskUnits="userSpaceOnUse" x="-34" y="7" width="185" height="185">
<path d="M-33.8253 191.572H150.453V7.64764H-33.8253V191.572Z" fill="white"/>
</mask>
<g mask="url(#mask4_205_2)">
<path fill-rule="evenodd" clip-rule="evenodd" d="M92.6049 30.4272H92.4089C92.2103 30.4779 92.0636 30.6259 91.9636 30.7739L91.1769 32.1019C90.9303 32.4472 91.0783 32.9392 91.4236 33.1339L93.3916 34.3672C93.5903 34.4646 93.7863 34.4646 93.9836 34.4139C94.1796 34.3672 94.3769 34.2672 94.4756 34.0712L95.2129 32.7912C95.5089 32.4472 95.3129 32.0032 94.9689 31.7072L92.9996 30.5259C92.8516 30.4272 92.7529 30.4272 92.6049 30.4272ZM93.7863 34.8592C93.5903 34.8592 93.3916 34.8086 93.1956 34.7099L91.2263 33.4806C90.6836 33.1846 90.4876 32.4472 90.8316 31.9046L91.5716 30.5752C91.7676 30.2792 92.0143 30.1312 92.3103 30.0352C92.6049 29.9846 92.9489 29.9846 93.1956 30.1819L95.1649 31.3632C95.8036 31.7072 95.9516 32.4472 95.6076 33.0366L94.8209 34.3179C94.6236 34.5619 94.3769 34.7606 94.0809 34.8086C93.9836 34.8592 93.8849 34.8592 93.7863 34.8592Z" fill="#632C24"/>
</g>
<mask id="mask5_205_2" style="mask-type:luminance" maskUnits="userSpaceOnUse" x="-34" y="7" width="185" height="185">
<path d="M-33.8253 191.572H150.453V7.64767H-33.8253V191.572Z" fill="white"/>
</mask>
<g mask="url(#mask5_205_2)">
<path fill-rule="evenodd" clip-rule="evenodd" d="M55.3876 108.111C53.5663 108.111 51.8436 107.669 50.2196 106.783C41.7023 101.907 46.1809 89.5512 46.2316 89.4032L46.8223 89.6499C46.7716 89.7486 42.4889 101.613 50.5143 106.193C53.5169 107.915 57.1103 107.915 60.6556 106.241C66.6116 103.335 70.9436 96.4926 72.3223 87.7792L72.9636 87.8792C71.5836 96.7886 67.0543 103.829 60.9503 106.783C59.1289 107.669 57.2089 108.111 55.3876 108.111Z" fill="#632C24"/>
</g>
<mask id="mask6_205_2" style="mask-type:luminance" maskUnits="userSpaceOnUse" x="-34" y="7" width="185" height="185">
<path d="M-33.8253 191.572H150.453V7.64764H-33.8253V191.572Z" fill="white"/>
</mask>
<g mask="url(#mask6_205_2)">
<path fill-rule="evenodd" clip-rule="evenodd" d="M50.1688 106.732C44.6061 102.943 51.1541 90.143 51.4488 89.6016L52.0395 89.8963C51.9421 90.0443 45.4435 102.696 50.5635 106.192L50.1688 106.732Z" fill="#632C24"/>
</g>
<mask id="mask7_205_2" style="mask-type:luminance" maskUnits="userSpaceOnUse" x="-34" y="7" width="185" height="185">
<path d="M-33.8253 191.572H150.453V7.64764H-33.8253V191.572Z" fill="white"/>
</mask>
<g mask="url(#mask7_205_2)">
<path fill-rule="evenodd" clip-rule="evenodd" d="M49.8249 106.388C48.1996 102.892 55.7316 90.0923 56.0289 89.5509L56.5689 89.8483C54.4516 93.4896 49.1836 103.434 50.4156 106.142L49.8249 106.388Z" fill="#632C24"/>
</g>
<mask id="mask8_205_2" style="mask-type:luminance" maskUnits="userSpaceOnUse" x="-34" y="7" width="185" height="185">
<path d="M-33.8253 191.572H150.453V7.64767H-33.8253V191.572Z" fill="white"/>
</mask>
<g mask="url(#mask8_205_2)">
<path fill-rule="evenodd" clip-rule="evenodd" d="M50.8097 106.979C50.711 106.979 50.611 106.931 50.563 106.931L50.8577 106.34L50.711 106.635L50.8097 106.34C50.8097 106.34 51.695 106.437 54.6977 103.433C59.327 98.7575 64.0523 88.8135 64.1003 88.7162L64.691 88.9602C64.643 89.0602 59.8683 99.1028 55.191 103.927C52.4843 106.584 51.3017 106.979 50.8097 106.979Z" fill="#632C24"/>
</g>
<mask id="mask9_205_2" style="mask-type:luminance" maskUnits="userSpaceOnUse" x="-34" y="7" width="185" height="185">
<path d="M-33.8253 191.572H150.453V7.64767H-33.8253V191.572Z" fill="white"/>
</mask>
<g mask="url(#mask9_205_2)">
<path fill-rule="evenodd" clip-rule="evenodd" d="M51.7439 107.422H51.5959L51.6466 106.783C51.6466 106.783 54.1079 106.88 57.6039 104.419C61.4439 101.663 67.1533 93.391 67.6959 88.6163L68.3346 88.6656C67.7439 93.5883 61.8866 102.106 57.9959 104.96C54.7466 107.226 52.3359 107.422 51.7439 107.422Z" fill="#632C24"/>
</g>
<mask id="mask10_205_2" style="mask-type:luminance" maskUnits="userSpaceOnUse" x="-34" y="7" width="185" height="185">
<path d="M-33.8253 191.572H150.453V7.64767H-33.8253V191.572Z" fill="white"/>
</mask>
<g mask="url(#mask10_205_2)">
<path fill-rule="evenodd" clip-rule="evenodd" d="M48.0031 87.3369L47.4618 86.9422L47.6591 86.6955C47.7085 86.6475 51.3511 81.4289 55.3391 77.7875C57.2098 76.1129 59.6698 73.9475 62.0831 71.8302C64.6911 69.5649 67.1031 67.4489 68.0391 66.5129C70.0085 64.5929 73.1591 61.1475 73.6525 59.9169L73.7498 59.6209L74.3405 59.8675L74.2431 60.1635C73.6525 61.6395 70.0578 65.4795 68.4818 67.0049C67.5485 67.8915 65.0858 70.0569 62.5258 72.3222C60.1138 74.3902 57.6031 76.6049 55.7818 78.2782C51.7938 81.8715 48.2498 86.9915 48.1991 87.0422L48.0031 87.3369Z" fill="#632C24"/>
</g>
<mask id="mask11_205_2" style="mask-type:luminance" maskUnits="userSpaceOnUse" x="-34" y="7" width="185" height="185">
<path d="M-33.8253 191.572H150.453V7.64767H-33.8253V191.572Z" fill="white"/>
</mask>
<g mask="url(#mask11_205_2)">
<path fill-rule="evenodd" clip-rule="evenodd" d="M53.5172 87.5331L52.9758 87.1891L53.1718 86.8944C53.2225 86.8438 56.7665 82.0184 59.3265 79.1158L61.1972 76.9491C63.3625 74.4384 66.3652 70.9931 67.3505 69.9091C68.4332 68.6798 70.9932 65.7744 71.8305 64.6411C72.9118 63.2144 74.5385 60.8024 74.5385 60.7531L74.7345 60.5064L75.2758 60.8504L75.0798 61.1478C75.0798 61.1478 73.4545 63.6078 72.3718 65.0358C71.4358 66.2171 68.8758 69.1704 67.8425 70.3518C66.8585 71.4358 63.8558 74.8331 61.6878 77.3918L59.8172 79.5091C57.2585 82.4131 53.7638 87.2384 53.7132 87.2864L53.5172 87.5331Z" fill="#632C24"/>
</g>
<mask id="mask12_205_2" style="mask-type:luminance" maskUnits="userSpaceOnUse" x="-34" y="7" width="185" height="185">
<path d="M-33.8253 191.572H150.453V7.64767H-33.8253V191.572Z" fill="white"/>
</mask>
<g mask="url(#mask12_205_2)">
<path fill-rule="evenodd" clip-rule="evenodd" d="M58.095 87.3369L57.5537 86.9915L57.7004 86.6955C57.751 86.6475 63.019 78.8689 64.691 76.7035C66.3657 74.4875 69.7137 69.6142 70.943 67.8422C71.3377 67.2022 71.9284 66.3649 72.5204 65.4795C73.6017 63.9035 74.8817 62.1302 75.375 61.2955L75.523 60.9982L76.0644 61.3435L75.915 61.5902C75.4244 62.4755 74.1444 64.2982 73.0604 65.8729C72.4697 66.7582 71.879 67.5955 71.4844 68.1862C70.255 70.0075 66.907 74.8809 65.2324 77.0969C63.5604 79.2635 58.291 86.9915 58.243 87.0902L58.095 87.3369Z" fill="#632C24"/>
</g>
<mask id="mask13_205_2" style="mask-type:luminance" maskUnits="userSpaceOnUse" x="-34" y="7" width="185" height="185">
<path d="M-33.8253 191.572H150.453V7.64767H-33.8253V191.572Z" fill="white"/>
</mask>
<g mask="url(#mask13_205_2)">
<path fill-rule="evenodd" clip-rule="evenodd" d="M65.627 86.7463L65.0364 86.4996L65.1844 86.205C65.2324 86.105 70.0577 75.9143 70.6484 74.4383C71.2884 72.9116 73.7497 67.6943 74.1444 66.9063C75.0804 65.0356 76.0137 63.165 76.703 62.0823L76.9004 61.8356L77.4417 62.181L77.2457 62.4276C76.6044 63.509 75.6204 65.3316 74.7337 67.2023C74.291 68.0383 71.879 73.257 71.2404 74.685C70.6484 76.161 65.971 86.057 65.775 86.4516L65.627 86.7463Z" fill="#632C24"/>
</g>
<mask id="mask14_205_2" style="mask-type:luminance" maskUnits="userSpaceOnUse" x="-34" y="7" width="185" height="185">
<path d="M-33.8253 191.572H150.453V7.64767H-33.8253V191.572Z" fill="white"/>
</mask>
<g mask="url(#mask14_205_2)">
<path fill-rule="evenodd" clip-rule="evenodd" d="M69.4669 86.1055L68.8282 85.9095L68.9256 85.6135C68.9749 85.5642 71.1896 79.0668 72.0269 76.4562C72.8642 73.9468 73.8002 71.0922 74.5376 69.1708C75.1776 67.4002 76.9989 63.2628 77.4416 62.5748L77.6402 62.2775L78.1802 62.6242L78.0322 62.9188C77.6402 63.5095 75.7682 67.5468 75.1282 69.3668C74.4389 71.3362 73.4549 74.1428 72.6682 76.6548C71.8309 79.2628 69.5656 85.7615 69.5656 85.8108L69.4669 86.1055Z" fill="#632C24"/>
</g>
<mask id="mask15_205_2" style="mask-type:luminance" maskUnits="userSpaceOnUse" x="-34" y="7" width="185" height="185">
<path d="M-33.8253 191.572H150.453V7.64767H-33.8253V191.572Z" fill="white"/>
</mask>
<g mask="url(#mask15_205_2)">
<path fill-rule="evenodd" clip-rule="evenodd" d="M73.4057 85.4162L72.7644 85.3188L72.8644 84.9735C73.5537 81.3308 74.6351 75.7668 74.6857 75.4228C74.6857 74.8815 76.1137 69.5148 76.1137 69.4668C76.3604 68.4335 78.2297 63.4108 78.4751 62.8708L78.6244 62.5748L79.2151 62.8708L79.0671 63.1655C78.8697 63.6082 76.9991 68.6295 76.7524 69.6135C76.3097 71.1895 75.3244 75.0295 75.3244 75.4228C75.3244 75.8655 73.8484 83.5455 73.5031 85.1215L73.4057 85.4162Z" fill="#632C24"/>
</g>
<mask id="mask16_205_2" style="mask-type:luminance" maskUnits="userSpaceOnUse" x="-34" y="7" width="185" height="185">
<path d="M-33.8253 191.572H150.453V7.64767H-33.8253V191.572Z" fill="white"/>
</mask>
<g mask="url(#mask16_205_2)">
<path fill-rule="evenodd" clip-rule="evenodd" d="M52.0897 51.3512C52.5323 50.2672 52.187 48.9872 51.0563 48.4939C50.1683 48.1499 49.283 48.5446 48.8897 49.0859C48.939 48.3966 48.6923 47.5099 47.807 47.1659C46.675 46.6739 45.543 47.3139 45.099 48.3459H45.0497C44.9523 48.5446 43.967 50.9072 46.675 54.3032C51.0057 53.9099 51.991 51.5966 52.0897 51.3512Z" fill="#632C24"/>
</g>
<mask id="mask17_205_2" style="mask-type:luminance" maskUnits="userSpaceOnUse" x="-34" y="7" width="185" height="185">
<path d="M-33.8253 191.572H150.453V7.64767H-33.8253V191.572Z" fill="white"/>
</mask>
<g mask="url(#mask17_205_2)">
<path fill-rule="evenodd" clip-rule="evenodd" d="M59.6217 62.5247C59.4737 61.786 58.7364 61.1967 57.8991 61.442C57.2577 61.59 57.0111 62.13 56.9631 62.5754C56.7671 62.1807 56.2737 61.786 55.6337 61.934C54.8457 62.13 54.4511 62.9674 54.6497 63.7074C54.6497 63.8554 55.0444 65.4794 57.8484 66.3154C60.0644 64.346 59.6697 62.6727 59.6217 62.5247Z" fill="#632C24"/>
</g>
<mask id="mask18_205_2" style="mask-type:luminance" maskUnits="userSpaceOnUse" x="-34" y="7" width="185" height="185">
<path d="M-33.8253 191.572H150.453V7.64767H-33.8253V191.572Z" fill="white"/>
</mask>
<g mask="url(#mask18_205_2)">
<path fill-rule="evenodd" clip-rule="evenodd" d="M66.4156 40.8652H66.4636C66.661 40.1266 66.365 39.3386 65.5783 39.0906C64.9383 38.8959 64.4463 39.1906 64.1996 39.5852C64.1996 39.1412 63.953 38.5506 63.3623 38.3546C62.5756 38.1066 61.7876 38.5999 61.541 39.3386C61.4916 39.5346 60.9983 41.1119 63.0676 43.2266C65.8743 42.6852 66.4156 41.0612 66.4156 40.8652Z" fill="#632C24"/>
</g>
<mask id="mask19_205_2" style="mask-type:luminance" maskUnits="userSpaceOnUse" x="-34" y="7" width="185" height="185">
<path d="M-33.8253 191.572H150.453V7.64767H-33.8253V191.572Z" fill="white"/>
</mask>
<g mask="url(#mask19_205_2)">
<path fill-rule="evenodd" clip-rule="evenodd" d="M47.4127 25.455C46.9193 24.275 45.6393 23.5857 44.41 24.0777C43.4247 24.5203 43.13 25.455 43.2273 26.243C42.7353 25.7017 41.85 25.159 40.8647 25.603C39.586 26.1443 39.1913 27.523 39.634 28.7043H39.682C39.782 28.951 40.8647 31.511 45.5913 32.003C48.6433 28.3097 47.5113 25.751 47.4127 25.455Z" fill="#632C24"/>
</g>
<mask id="mask20_205_2" style="mask-type:luminance" maskUnits="userSpaceOnUse" x="83" y="-74" width="185" height="185">
<path d="M83.4795 110.86H267.758V-73.0644H83.4795V110.86Z" fill="white"/>
</mask>
<g mask="url(#mask20_205_2)">
<path fill-rule="evenodd" clip-rule="evenodd" d="M107.781 56.8814C107.88 56.9321 108.028 56.9321 108.076 56.9801C108.176 57.0294 108.273 57.0294 108.372 57.0294C109.308 57.0294 110.292 56.9321 111.179 56.6854C112.113 56.4388 112.949 56.0441 113.739 55.6014C114.476 55.1094 115.165 54.5201 115.657 53.7308C116.199 52.9934 116.593 52.1561 116.84 51.1228C116.888 50.8761 116.937 50.5801 116.937 50.2854C116.937 49.5468 116.741 48.9574 116.347 48.5121C115.952 48.0694 115.412 47.8241 114.672 47.8241C114.28 47.8241 113.837 47.9214 113.443 48.1201C113.049 48.2668 112.655 48.5121 112.26 48.8081C111.916 49.1041 111.572 49.4001 111.327 49.7441C111.031 50.1374 110.784 50.4814 110.588 50.7774C110.243 51.4668 109.899 52.1561 109.504 52.8454C109.16 53.5348 108.815 54.2241 108.471 54.9628C108.323 55.2574 108.176 55.5534 108.028 55.8481C107.88 56.1921 107.781 56.4894 107.781 56.8814ZM103.499 58.3094L101.431 58.4081C101.529 58.1614 101.628 57.9654 101.776 57.8174C101.873 57.6694 101.972 57.5708 102.168 57.4228C102.316 57.3241 102.513 57.2268 102.809 57.1281C103.056 57.0294 103.448 56.9321 103.893 56.8334L104.975 54.7641C105.417 54.0268 105.812 53.2401 106.255 52.4508C106.697 51.7134 107.14 50.9241 107.585 50.1868C107.831 49.6441 108.125 49.0548 108.42 48.4641C108.767 47.9214 108.913 47.2828 108.913 46.6414C108.913 45.8054 108.42 45.4121 107.387 45.4121C106.107 45.5094 104.876 45.7561 103.843 46.1988C102.809 46.6414 102.021 47.3801 101.381 48.3641C101.333 48.4641 101.283 48.5628 101.283 48.6108C101.235 48.7108 101.185 48.8081 101.185 48.8574C101.185 49.0548 101.283 49.2521 101.381 49.4001C101.529 49.5468 101.677 49.6441 101.924 49.6441C102.168 49.6441 102.415 49.5468 102.661 49.4481C102.908 49.3001 103.153 49.1534 103.4 48.9574C103.647 48.7588 103.893 48.5121 104.137 48.3161C104.384 48.0694 104.58 47.8734 104.779 47.6774C104.827 47.8241 104.827 47.9214 104.876 48.0214C104.927 48.1201 104.975 48.2174 104.975 48.2668C104.975 48.3161 104.927 48.3161 104.927 48.3641C104.631 48.9574 104.188 49.4481 103.596 49.8908C103.005 50.2854 102.367 50.5321 101.677 50.5321C101.235 50.5321 100.84 50.3841 100.544 50.1374C100.249 49.8908 100.101 49.5468 100.101 49.2014C100.101 48.9574 100.151 48.7108 100.249 48.4148C100.348 48.1681 100.445 47.9214 100.593 47.6774C101.283 46.5934 102.219 45.7561 103.351 45.2148C104.484 44.6241 105.911 44.3281 107.387 44.1814C108.176 44.1814 108.767 44.2801 109.257 44.4281C109.751 44.5748 110.145 44.8201 110.44 45.1174C110.685 45.4121 110.932 45.8054 111.08 46.2481C111.227 46.7414 111.327 47.2321 111.425 47.8734C111.425 47.8734 111.473 47.9214 111.572 48.0214L112.852 47.3308C113.148 47.1348 113.492 47.0361 113.787 46.9374C114.132 46.8881 114.476 46.8401 114.82 46.8401C115.509 46.8401 116.151 46.9881 116.741 47.2828C117.332 47.5774 117.825 47.9214 118.217 48.4148C118.66 48.8574 119.005 49.4001 119.201 49.9908C119.448 50.5801 119.548 51.1708 119.548 51.7614C119.548 52.9934 119.252 54.0268 118.66 54.8628C118.069 55.7001 117.332 56.4388 116.347 56.9321C115.412 57.4721 114.329 57.8668 113.097 58.1121C111.916 58.4081 110.685 58.5561 109.456 58.5561C109.061 58.5561 108.717 58.5561 108.372 58.5068H107.24C106.944 59.0974 106.748 59.6388 106.649 60.2294C106.551 60.8201 106.501 61.4108 106.501 62.0014V63.0854C106.453 63.3801 106.453 63.7241 106.453 64.0694C106.453 64.6601 106.501 65.2508 106.501 65.8414C106.551 66.4334 106.649 66.9241 106.796 67.3681C106.845 67.5641 106.896 67.8108 106.944 68.0081C106.993 68.2041 106.993 68.4508 106.993 68.6481C106.993 68.9428 106.944 69.1401 106.896 69.2881C106.796 69.4361 106.6 69.4841 106.353 69.4841C105.86 69.4841 105.417 69.3374 105.025 69.0908C104.631 68.8441 104.336 68.5001 104.04 68.0574C103.793 67.6628 103.547 67.2201 103.4 66.7281C103.204 66.2348 103.056 65.7921 103.005 65.3014C102.908 64.8561 102.809 64.4641 102.809 64.1188C102.76 63.7241 102.711 63.4788 102.711 63.3801C102.711 62.6414 102.809 61.8534 102.957 61.1161C103.153 60.3294 103.3 59.3921 103.499 58.3094Z" fill="#632C24"/>
</g>
<mask id="mask21_205_2" style="mask-type:luminance" maskUnits="userSpaceOnUse" x="83" y="-74" width="185" height="185">
<path d="M83.4795 110.86H267.758V-73.0644H83.4795V110.86Z" fill="white"/>
</mask>
<g mask="url(#mask21_205_2)">
<path fill-rule="evenodd" clip-rule="evenodd" d="M124.469 53.3873V53.6326C124.469 54.026 124.321 54.3726 124.027 54.6166C123.683 54.8633 123.337 55.0113 122.944 55.0113C122.501 55.0113 122.108 54.9126 121.812 54.6166C121.517 54.3726 121.369 54.0766 121.369 53.7793C121.369 53.3873 121.517 53.0926 121.812 52.846C122.156 52.5993 122.501 52.4993 122.845 52.4993C123.189 52.4993 123.484 52.5993 123.731 52.746C123.977 52.9446 124.224 53.1406 124.469 53.3873ZM119.991 64.7593C120.237 64.7593 120.532 64.6606 120.828 64.414C121.072 64.2166 121.369 63.9713 121.615 63.6753C121.861 63.3806 122.108 63.0366 122.304 62.6913C122.551 62.3473 122.747 62.0513 122.944 61.7566C123.092 61.558 123.288 61.3113 123.484 61.0166C123.632 60.722 123.831 60.4766 124.027 60.1806C124.224 59.934 124.421 59.6873 124.617 59.4913C124.815 59.2446 124.963 59.146 125.111 59.146C125.209 59.146 125.307 59.1966 125.455 59.294C125.601 59.3446 125.652 59.442 125.652 59.5406C125.652 59.6393 125.601 59.6873 125.553 59.8353C125.504 59.934 125.455 60.0313 125.357 60.1313C125.061 60.6246 124.716 61.214 124.321 61.9046C123.879 62.642 123.436 63.2806 122.944 63.922C122.451 64.5606 121.96 65.1033 121.417 65.546C120.876 65.9886 120.335 66.2833 119.843 66.2833C119.548 66.2833 119.252 66.1873 119.005 65.9886C118.711 65.8406 118.464 65.6446 118.217 65.398C118.021 65.154 117.825 64.9073 117.725 64.6113C117.579 64.266 117.529 63.9713 117.529 63.6753C117.529 63.0846 117.579 62.494 117.677 61.9046C117.825 61.2633 117.972 60.6726 118.168 60.082C118.415 59.442 118.66 58.9006 118.957 58.3086C119.252 57.7686 119.596 57.2753 119.941 56.7846C120.187 56.438 120.481 56.1926 120.777 55.9953C121.123 55.7486 121.467 55.6513 121.909 55.6513C122.156 55.6513 122.352 55.7006 122.501 55.8486C122.649 55.9473 122.747 56.0953 122.747 56.3393C122.747 56.538 122.649 56.7846 122.501 57.0793C122.352 57.3753 122.255 57.5713 122.156 57.818C121.664 58.6553 121.271 59.4913 120.925 60.378C120.532 61.2633 120.237 62.1993 120.039 63.134C119.991 63.3313 119.941 63.4793 119.892 63.6753C119.843 63.8233 119.843 64.0206 119.843 64.1686C119.843 64.3646 119.892 64.5606 119.991 64.7593Z" fill="#632C24"/>
</g>
<mask id="mask22_205_2" style="mask-type:luminance" maskUnits="userSpaceOnUse" x="83" y="-74" width="185" height="185">
<path d="M83.4795 110.86H267.758V-73.0644H83.4795V110.86Z" fill="white"/>
</mask>
<g mask="url(#mask22_205_2)">
<path fill-rule="evenodd" clip-rule="evenodd" d="M131.263 50.8273C130.625 52.0086 129.983 53.1886 129.345 54.322C128.703 55.5046 128.162 56.6846 127.622 57.818C128.999 56.438 130.082 55.2086 130.869 54.174C131.658 53.1406 132.249 52.2553 132.691 51.5166C133.085 50.8273 133.331 50.2366 133.429 49.7926C133.529 49.35 133.577 49.006 133.577 48.7593C133.577 48.6606 133.577 48.6113 133.529 48.5126V48.3646L133.479 48.2673C133.134 48.2673 132.889 48.3646 132.691 48.5126C132.446 48.71 132.249 48.906 132.101 49.202C131.953 49.4486 131.805 49.6953 131.658 49.99C131.51 50.286 131.411 50.5806 131.263 50.8273ZM126.439 60.722C126.194 61.4606 125.897 62.2966 125.653 63.134C125.406 63.922 125.306 64.7086 125.306 65.4486C125.306 65.6446 125.306 65.7926 125.357 65.9886C125.406 66.1873 125.454 66.3833 125.553 66.5806C125.653 66.7766 125.75 66.9246 125.849 67.0726C125.995 67.1713 126.095 67.2686 126.291 67.2686C126.833 67.2686 127.325 67.0726 127.818 66.678C128.309 66.2833 128.754 65.7926 129.146 65.25C129.541 64.6606 129.885 64.07 130.182 63.4793C130.477 62.8886 130.771 62.3953 130.969 62.0006C130.969 61.9526 131.067 61.7566 131.165 61.4606C131.314 61.1646 131.462 60.8686 131.558 60.574C131.706 60.23 131.854 59.9833 132.002 59.6873C132.199 59.442 132.347 59.294 132.494 59.294C132.642 59.294 132.741 59.3926 132.838 59.5406C132.889 59.6393 132.938 59.7873 132.938 59.8846C132.938 59.9833 132.938 60.082 132.889 60.1806C132.543 60.9673 132.101 61.854 131.658 62.838C131.165 63.8233 130.673 64.7086 130.082 65.5966C129.491 66.482 128.851 67.1713 128.213 67.762C127.522 68.3526 126.833 68.6473 126.095 68.6473C125.454 68.6473 124.863 68.4513 124.273 68.0566C123.683 67.6633 123.337 67.0726 123.19 66.334L123.093 65.8406C123.042 65.7433 123.042 65.6446 123.042 65.4966V65.1033C123.042 64.414 123.19 63.5766 123.437 62.5433C123.683 61.558 123.978 60.4766 124.373 59.3446C124.765 58.162 125.209 56.9313 125.75 55.7486C126.242 54.5686 126.785 53.4353 127.325 52.402C127.866 51.3193 128.409 50.3846 128.902 49.5966C129.442 48.7593 129.885 48.1686 130.329 47.726C130.574 47.43 130.869 47.1833 131.215 46.9873C131.609 46.8393 132.002 46.7406 132.446 46.7406C132.741 46.7406 132.986 46.79 133.282 46.8886C133.529 46.9366 133.775 47.0366 133.971 47.1833C134.218 47.3313 134.365 47.578 134.513 47.8246C134.661 48.07 134.759 48.4153 134.759 48.8073C134.759 50.0873 134.021 51.7126 132.594 53.7313C131.115 55.7993 129.098 58.1126 126.439 60.722Z" fill="#632C24"/>
</g>
<mask id="mask23_205_2" style="mask-type:luminance" maskUnits="userSpaceOnUse" x="83" y="-74" width="185" height="185">
<path d="M83.4795 110.86H267.758V-73.0644H83.4795V110.86Z" fill="white"/>
</mask>
<g mask="url(#mask23_205_2)">
<path fill-rule="evenodd" clip-rule="evenodd" d="M137.861 56.9805C137.713 56.8818 137.566 56.8325 137.368 56.8325C136.973 56.8325 136.53 57.0792 135.989 57.5712C135.398 57.9658 134.808 58.5552 134.266 59.1965C133.726 59.8352 133.281 60.5738 132.889 61.3618C132.494 62.1005 132.297 62.8378 132.297 63.5272C132.297 64.1685 132.593 64.5605 133.184 64.7085C133.774 64.4138 134.266 64.1178 134.661 63.7738C135.054 63.4285 135.497 63.0365 135.841 62.5432C135.94 62.1485 136.04 61.7058 136.186 61.2152C136.334 60.7218 136.53 60.2298 136.729 59.7365C136.925 59.1965 137.121 58.7512 137.32 58.2605C137.516 57.8178 137.713 57.3752 137.861 56.9805ZM141.306 62.5432C141.454 62.3472 141.602 62.0512 141.798 61.7058C142.045 61.4112 142.241 61.0672 142.488 60.6725C142.734 60.3285 142.93 59.9832 143.177 59.6392C143.373 59.3445 143.572 59.0485 143.718 58.8018C143.768 58.6552 143.866 58.6552 143.965 58.8018C144.113 58.9498 144.162 59.0485 144.21 59.1458C144.21 59.2445 144.21 59.3445 144.162 59.5405C143.866 60.1805 143.472 60.9192 143.078 61.7058C142.636 62.4938 142.193 63.1845 141.701 63.8738C141.16 64.5125 140.617 65.1032 140.026 65.5458C139.386 65.9885 138.746 66.2352 138.057 66.2352C137.614 66.2352 137.22 66.0872 136.925 65.7925C136.63 65.4978 136.286 65.0538 135.892 64.5605C135.35 64.9552 134.76 65.3978 134.118 65.7432C133.528 66.1365 132.937 66.3338 132.348 66.3338C132.052 66.3338 131.757 66.2352 131.461 66.0872C131.165 65.8912 130.92 65.6938 130.673 65.3978C130.426 65.1032 130.23 64.7085 130.082 64.3165C129.934 63.9218 129.836 63.4285 129.836 62.9378C129.836 62.1005 130.034 61.2632 130.377 60.3778C130.721 59.4912 131.214 58.7032 131.757 57.9658C132.348 57.2752 133.037 56.6365 133.774 56.1432C134.561 55.7005 135.398 55.4538 136.186 55.4538C136.973 55.4538 137.713 55.6512 138.401 55.9952C138.648 55.7992 138.894 55.6018 139.189 55.3565C139.436 55.1592 139.732 55.0112 140.026 55.0112C140.125 55.0112 140.273 55.0592 140.421 55.1098C140.569 55.1592 140.716 55.2085 140.864 55.3058C141.012 55.4058 141.16 55.5045 141.258 55.6512C141.356 55.7992 141.406 55.9472 141.406 56.0952C141.406 56.2418 141.356 56.4392 141.258 56.6365C141.16 56.7845 141.109 56.9805 140.961 57.1285C140.765 57.6698 140.518 58.1618 140.322 58.6045C140.125 59.0485 139.928 59.5405 139.732 59.9832C139.533 60.4258 139.337 60.9192 139.189 61.3618C139.042 61.8538 138.894 62.3472 138.796 62.8885C138.698 63.1845 138.6 63.4285 138.6 63.6272C138.549 63.8232 138.549 64.0205 138.549 64.1685C138.549 64.5125 138.648 64.7085 138.894 64.7085C139.042 64.7085 139.238 64.6605 139.436 64.5125C139.681 64.4138 139.88 64.2178 140.125 64.0205C140.322 63.7738 140.518 63.5765 140.765 63.3312C140.961 63.0365 141.109 62.7898 141.306 62.5432Z" fill="#632C24"/>
</g>
<mask id="mask24_205_2" style="mask-type:luminance" maskUnits="userSpaceOnUse" x="83" y="-74" width="185" height="185">
<path d="M83.4795 110.86H267.758V-73.0644H83.4795V110.86Z" fill="white"/>
</mask>
<g mask="url(#mask24_205_2)">
<path fill-rule="evenodd" clip-rule="evenodd" d="M145.146 54.7158C145.146 54.6172 145.097 54.4692 145.048 54.2238C144.998 54.0265 144.852 53.9292 144.605 53.9292C144.505 53.9292 144.408 53.9772 144.358 54.1745C144.309 54.3212 144.261 54.4212 144.261 54.5198C144.261 54.6665 144.309 54.8145 144.408 55.0105C144.505 55.1585 144.704 55.2572 144.95 55.2572C145.048 55.2572 145.097 55.2092 145.146 55.0598V54.7158ZM153.516 59.4918C153.368 59.9345 153.17 60.3772 152.874 60.8692C152.63 61.3625 152.333 61.8532 152.037 62.2958C151.693 62.7892 151.35 63.2812 151.004 63.7745C150.66 64.2172 150.365 64.6118 150.07 64.9558C149.724 65.3492 149.33 65.6452 148.937 65.8918C148.544 66.1358 148.101 66.2358 147.657 66.2358C147.213 66.2358 146.821 66.1865 146.474 65.9892C146.132 65.8412 145.885 65.6452 145.688 65.3985C145.441 65.1532 145.294 64.8558 145.194 64.5118C145.097 64.1692 145.048 63.8732 145.048 63.5278C145.048 63.1332 145.097 62.6425 145.245 62.2478C145.393 61.8532 145.589 61.4612 145.785 61.0665C145.984 60.6732 146.23 60.2785 146.474 59.8838C146.721 59.4918 146.918 59.1465 147.116 58.7518C147.264 58.4078 147.361 58.1612 147.361 58.0132C147.361 57.8172 147.264 57.6705 147.017 57.5225C146.77 57.4238 146.474 57.2758 146.132 57.1772C145.785 57.0798 145.393 56.9318 144.95 56.7838C144.556 56.6372 144.161 56.4892 143.818 56.2425C143.472 56.0438 143.177 55.7492 142.93 55.4545C142.685 55.1105 142.586 54.7158 142.586 54.2732C142.586 53.7798 142.734 53.3878 143.029 53.0918C143.325 52.8452 143.718 52.6972 144.21 52.6972C144.852 52.6972 145.342 52.8452 145.737 53.2398C146.081 53.5838 146.278 54.0265 146.278 54.5198C146.278 54.7158 146.23 54.9118 146.23 55.0598C146.18 55.2572 146.18 55.4545 146.132 55.7012C146.574 55.8478 147.017 56.0438 147.46 56.2425C147.902 56.4892 148.345 56.7332 148.74 56.9798C149.134 57.2758 149.528 57.5705 149.773 57.9158C150.02 58.2598 150.168 58.6038 150.168 58.9985C150.168 59.4412 150.02 59.8358 149.824 60.2292C149.577 60.6238 149.33 61.0158 148.986 61.4105C148.69 61.8052 148.396 62.1998 148.149 62.5918C147.953 63.0852 147.805 63.4785 147.805 63.9225C147.805 64.0212 147.854 64.1185 147.953 64.2172C148.05 64.3652 148.149 64.4638 148.297 64.4638C148.396 64.4638 148.493 64.4132 148.592 64.3158C149.085 64.1185 149.577 63.7238 150.07 63.1838C150.561 62.5918 151.004 62.0012 151.398 61.4105C151.793 60.8692 152.137 60.3292 152.432 59.8838C152.777 59.4412 153.022 59.2452 153.22 59.2452C153.269 59.2452 153.317 59.2452 153.368 59.3438C153.417 59.3932 153.465 59.4412 153.516 59.4918Z" fill="#632C24"/>
</g>
<mask id="mask25_205_2" style="mask-type:luminance" maskUnits="userSpaceOnUse" x="83" y="-74" width="185" height="185">
<path d="M83.4795 110.86H267.758V-73.0644H83.4795V110.86Z" fill="white"/>
</mask>
<g mask="url(#mask25_205_2)">
<path fill-rule="evenodd" clip-rule="evenodd" d="M163.46 66.1868C163.508 65.9401 163.608 65.7441 163.855 65.5961C164.051 65.4481 164.247 65.3015 164.444 65.1028C164.837 64.7095 165.183 64.2175 165.479 63.7241C165.724 63.1841 165.872 62.6415 165.872 62.0521C165.872 61.7055 165.821 61.4108 165.625 61.1161C165.479 60.8695 165.183 60.7215 164.788 60.7215C164.395 60.7215 163.952 60.8201 163.508 61.0668C163.017 61.3121 162.623 61.6575 162.228 62.1001C161.835 62.5428 161.491 63.0855 161.244 63.7241C160.997 64.3161 160.849 65.0041 160.849 65.7441C160.849 66.1868 160.9 66.5815 161.048 67.0241C161.145 67.4668 161.295 67.8615 161.539 68.2535C161.737 68.5988 162.032 68.8948 162.328 69.1415C162.623 69.3855 162.967 69.4841 163.409 69.4841C163.855 69.4841 164.297 69.3375 164.837 69.0908C165.331 68.8441 165.821 68.5481 166.364 68.1561C166.857 67.7615 167.348 67.3681 167.791 66.9241C168.284 66.4815 168.677 66.0388 169.023 65.6455C169.661 64.9068 170.253 64.1681 170.793 63.3801C171.336 62.5921 171.877 61.8535 172.42 61.0668C172.519 60.9188 172.616 60.7721 172.715 60.6241C172.813 60.5255 172.911 60.3295 172.911 60.1815C172.911 60.0321 172.813 59.9348 172.715 59.8841C172.616 59.7868 172.519 59.7361 172.369 59.7361C172.221 59.6881 172.073 59.6881 171.927 59.6388H171.583C170.992 59.6388 170.451 59.7868 170.056 60.1308C169.661 60.4761 169.317 60.8695 169.023 61.3121C168.827 61.2628 168.728 61.1641 168.628 61.1161C168.58 61.0161 168.529 60.9188 168.529 60.8695C168.529 60.7721 168.58 60.6721 168.628 60.5735C168.875 60.0828 169.121 59.7361 169.417 59.4415C169.712 59.0975 170.056 58.9015 170.451 58.7028C170.844 58.5068 171.287 58.3601 171.829 58.3095C172.369 58.2121 172.961 58.1615 173.7 58.1615C174.043 57.7695 174.389 57.2268 174.684 56.5375C174.98 55.8481 175.275 55.1108 175.521 54.3215C175.717 53.5348 175.913 52.7468 176.061 51.9095C176.16 51.1228 176.26 50.3841 176.26 49.6441C176.26 49.2521 176.211 48.9068 176.211 48.6108C176.16 48.2681 176.112 47.9721 176.013 47.6775C175.913 47.6775 175.767 47.6268 175.669 47.6268H175.028C174.389 47.8241 173.7 48.0215 173.059 48.2681C172.42 48.5628 171.829 48.8575 171.287 49.2521C170.745 49.5961 170.253 49.9908 169.86 50.4815C169.465 50.9241 169.121 51.4668 168.924 52.0575V52.1561C168.924 52.5508 169.121 52.7468 169.613 52.7468C169.86 52.7468 170.107 52.6975 170.351 52.5508C170.597 52.4028 170.844 52.2548 171.089 52.0575C171.336 51.8121 171.533 51.6148 171.731 51.4175C171.927 51.1708 172.073 50.9748 172.221 50.8268L172.42 50.9748C172.42 51.3188 172.32 51.6641 172.173 52.0081C171.977 52.3521 171.779 52.6495 171.533 52.8935C171.239 53.1895 170.941 53.3868 170.597 53.5348C170.204 53.7308 169.809 53.7801 169.367 53.7801C168.924 53.7801 168.529 53.6321 168.284 53.3375C167.989 53.0415 167.841 52.6975 167.841 52.2041C167.841 51.6641 167.989 51.1228 168.333 50.6295C168.628 50.1375 169.023 49.6948 169.564 49.2521C170.056 48.8081 170.647 48.4148 171.287 48.0215C171.927 47.6775 172.567 47.3801 173.256 47.1348C173.896 46.8401 174.585 46.6415 175.176 46.4948C175.816 46.3975 176.359 46.2975 176.849 46.2975C177.736 46.2975 178.327 46.5935 178.672 47.1348C178.967 47.6775 179.115 48.5121 179.115 49.5961V50.1868C179.115 50.3841 179.115 50.5321 179.065 50.7281C178.819 52.2041 178.524 53.5841 178.129 54.8641C177.736 56.1921 177.193 57.4721 176.603 58.8028C176.751 58.8508 176.997 58.8508 177.392 58.9015C177.736 58.9495 178.129 58.9495 178.524 58.9495C178.919 58.9495 179.263 58.9495 179.557 58.9015C179.852 58.8508 180.051 58.7521 180.099 58.6548C180.689 57.4721 181.232 56.2908 181.723 55.0601C182.165 53.8308 182.708 52.6495 183.249 51.5175C183.593 50.8268 183.891 50.1868 184.135 49.4975C184.431 48.8081 184.628 48.1201 184.825 47.4308C184.924 47.0841 185.072 46.7895 185.268 46.5441C185.465 46.2975 185.711 46.1508 186.056 46.1508C186.499 46.1508 186.843 46.2975 187.089 46.5935C187.336 46.8881 187.484 47.1841 187.484 47.5281C187.484 47.8241 187.384 48.1681 187.285 48.5628C187.188 49.0055 187.041 49.4001 186.893 49.7441C186.548 50.4815 186.204 51.2708 185.908 51.9601C185.563 52.6975 185.268 53.4361 184.924 54.1255C184.628 54.8641 184.283 55.6521 183.939 56.4388C183.593 57.1761 183.249 58.0135 182.905 58.8508C183.249 58.9015 183.644 58.9495 184.087 58.9495C184.381 58.9495 184.677 58.9015 184.924 58.9015C185.219 58.8508 185.367 58.8028 185.367 58.7028C185.515 58.8028 185.613 58.9015 185.613 58.9988C185.613 59.0495 185.563 59.1455 185.415 59.3441C185.317 59.4921 185.171 59.6388 185.023 59.8361C184.873 59.9828 184.725 60.1815 184.579 60.3775C184.381 60.5255 184.283 60.6721 184.135 60.7721C183.84 60.9681 183.496 61.1161 183.151 61.1161C182.759 61.1161 182.412 61.1641 182.117 61.2148C182.068 61.3628 181.969 61.7561 181.723 62.3468C181.527 62.9375 181.28 63.5761 181.084 64.2655C180.837 64.9548 180.591 65.6455 180.395 66.2841C180.199 66.9735 180.099 67.4668 180.099 67.7615C180.099 68.0575 180.247 68.2041 180.541 68.2041C180.788 68.2041 181.132 68.0575 181.576 67.8108C182.019 67.5641 182.463 67.2201 182.955 66.8255C183.445 66.4335 183.988 65.9401 184.481 65.4481C185.023 64.9068 185.515 64.4135 186.005 63.9215C186.451 63.3801 186.893 62.9375 187.237 62.4441C187.631 62.0015 187.975 61.6095 188.173 61.3121C188.271 61.3628 188.369 61.4615 188.517 61.5095C188.616 61.6095 188.664 61.6575 188.664 61.6575C188.221 62.5921 187.583 63.5281 186.843 64.4641C186.056 65.4481 185.268 66.3348 184.431 67.1708C183.545 68.0081 182.708 68.6481 181.921 69.1895C181.084 69.7308 180.443 69.9761 179.901 69.9761C179.213 69.9761 178.573 69.6815 178.031 69.1415C177.539 68.5481 177.244 67.8108 177.244 66.9735C177.244 66.7775 177.244 66.6295 177.292 66.4335C177.292 66.2348 177.341 66.0388 177.392 65.8415C177.392 65.7921 177.44 65.6455 177.491 65.3988C177.588 65.1535 177.736 64.8561 177.835 64.5121C177.983 64.1681 178.081 63.7748 178.229 63.3801C178.376 62.9855 178.524 62.5921 178.621 62.2481C178.771 61.9041 178.868 61.6095 178.967 61.3628C179.016 61.0668 179.065 60.9188 179.065 60.8695C178.473 60.8695 177.933 60.8201 177.44 60.7721C176.949 60.7215 176.407 60.6241 175.816 60.5255C175.275 61.5588 174.585 62.7415 173.748 63.9215C172.863 65.1535 171.927 66.2841 170.893 67.3188C169.908 68.4015 168.827 69.2375 167.693 69.9281C166.561 70.6175 165.479 70.9615 164.395 70.9615C163.656 70.9615 163.017 70.8135 162.425 70.5681C161.785 70.2735 161.295 69.9281 160.849 69.4361C160.457 68.9935 160.112 68.4015 159.865 67.7615C159.62 67.1215 159.521 66.4335 159.521 65.6455C159.521 65.0041 159.62 64.3655 159.865 63.6268C160.063 62.9375 160.407 62.2481 160.849 61.6575C161.295 61.0668 161.835 60.5735 162.475 60.1815C163.115 59.7868 163.855 59.5895 164.74 59.5895C166.02 59.5895 166.857 60.0828 167.201 61.1161L167.249 61.5588C167.201 62.5428 166.955 63.4295 166.561 64.2175C166.168 65.0041 165.479 65.6935 164.541 66.2841C164.444 66.3348 164.345 66.3348 164.297 66.3828C164.247 66.4335 164.197 66.4335 164.149 66.4335C164.051 66.4335 163.804 66.3348 163.46 66.1868Z" fill="#632C24"/>
</g>
<mask id="mask26_205_2" style="mask-type:luminance" maskUnits="userSpaceOnUse" x="83" y="-74" width="185" height="185">
<path d="M83.4795 110.86H267.758V-73.0644H83.4795V110.86Z" fill="white"/>
</mask>
<g mask="url(#mask26_205_2)">
<path fill-rule="evenodd" clip-rule="evenodd" d="M194.425 55.6518H194.178C193.884 55.6518 193.537 55.7012 193.194 55.8972C192.85 56.0945 192.504 56.2905 192.161 56.5865C191.814 56.8812 191.52 57.1772 191.224 57.5225C190.929 57.8665 190.733 58.2598 190.534 58.6038C190.733 58.7518 190.881 58.9505 190.977 59.0972C191.125 59.2452 191.372 59.3438 191.717 59.3438C192.11 59.3438 192.456 59.2452 192.85 58.9985C193.242 58.8025 193.537 58.5065 193.834 58.1612C194.13 57.8172 194.374 57.4718 194.522 57.1772C194.72 56.8332 194.769 56.5372 194.769 56.2905C194.769 56.0438 194.67 55.7998 194.425 55.6518ZM198.313 58.3598C198.56 58.1132 198.708 57.9652 198.806 57.9652C198.954 57.9652 199.002 58.1132 199.002 58.4572C199.002 58.8025 198.904 59.1972 198.708 59.5892C198.413 60.2785 198.018 60.9198 197.624 61.5585C197.23 62.1998 196.738 62.7892 196.246 63.3798C195.753 63.9705 195.164 64.4638 194.573 64.9558C193.932 65.4492 193.242 65.8412 192.554 66.1358C192.11 66.3345 191.618 66.4332 191.077 66.4332C190.338 66.4332 189.698 66.3345 189.157 66.0878C188.517 65.8918 188.074 65.5958 187.68 65.2025C187.237 64.8078 186.941 64.3652 186.745 63.8732C186.498 63.3318 186.4 62.7892 186.4 62.1998C186.4 60.7212 186.694 59.3932 187.285 58.1612C187.926 56.8812 188.96 55.8972 190.388 55.1105C190.781 54.8638 191.274 54.6665 191.766 54.5198C192.257 54.3212 192.8 54.2732 193.341 54.2732C194.277 54.2732 194.966 54.4692 195.41 54.8638C195.901 55.2572 196.148 55.8972 196.148 56.8332C196.148 56.9812 196.097 57.1772 196.049 57.3745C195.705 58.4572 195.114 59.2452 194.374 59.7372C193.685 60.2785 192.702 60.5732 191.47 60.5732C191.224 60.5732 190.977 60.5252 190.682 60.4758C190.437 60.3772 190.142 60.3292 189.845 60.2785C189.649 60.6732 189.501 61.1158 189.402 61.5092C189.254 61.9038 189.206 62.3465 189.206 62.7892C189.206 63.5278 189.354 64.0692 189.698 64.5118C190.044 64.9558 190.486 65.1532 191.125 65.1532C191.668 65.1532 192.209 65.0038 192.75 64.7585C193.293 64.5118 193.784 64.1692 194.226 63.7745C194.72 63.3318 195.164 62.8892 195.557 62.3465C196 61.8532 196.344 61.3625 196.689 60.8198C197.033 60.3292 197.377 59.8838 197.624 59.4412C197.87 58.9985 198.117 58.6038 198.313 58.3598Z" fill="#632C24"/>
</g>
<mask id="mask27_205_2" style="mask-type:luminance" maskUnits="userSpaceOnUse" x="83" y="-74" width="185" height="185">
<path d="M83.4795 110.86H267.758V-73.0644H83.4795V110.86Z" fill="white"/>
</mask>
<g mask="url(#mask27_205_2)">
<path fill-rule="evenodd" clip-rule="evenodd" d="M200.087 54.7158C200.036 54.6172 199.988 54.4692 199.937 54.2238C199.889 54.0265 199.741 53.9292 199.495 53.9292C199.397 53.9292 199.299 53.9772 199.249 54.1745C199.199 54.3212 199.151 54.4212 199.151 54.5198C199.151 54.6665 199.199 54.8145 199.299 55.0105C199.397 55.1585 199.593 55.2572 199.84 55.2572C199.937 55.2572 200.036 55.2092 200.036 55.0598C200.036 54.9118 200.036 54.8145 200.087 54.7158ZM208.455 59.4918C208.257 59.9345 208.061 60.3772 207.815 60.8692C207.52 61.3625 207.224 61.8532 206.929 62.2958C206.584 62.7892 206.24 63.2812 205.895 63.7745C205.551 64.2172 205.255 64.6118 204.96 64.9558C204.615 65.3492 204.271 65.6452 203.876 65.8918C203.433 66.1358 202.991 66.2358 202.548 66.2358C202.105 66.2358 201.711 66.1865 201.367 65.9892C201.069 65.8412 200.775 65.6452 200.579 65.3985C200.381 65.1532 200.184 64.8558 200.087 64.5118C199.988 64.1692 199.937 63.8732 199.937 63.5278C199.937 63.1332 200.036 62.6425 200.184 62.2478C200.283 61.8532 200.479 61.4612 200.677 61.0665C200.923 60.6732 201.12 60.2785 201.367 59.8838C201.612 59.4918 201.859 59.1465 202.005 58.7518C202.201 58.4078 202.252 58.1612 202.252 58.0132C202.252 57.8172 202.153 57.6705 201.907 57.5225C201.661 57.4238 201.367 57.2758 201.021 57.1772C200.677 57.0798 200.283 56.9318 199.889 56.7838C199.445 56.6372 199.052 56.4892 198.708 56.2425C198.363 56.0438 198.067 55.7492 197.823 55.4545C197.576 55.1105 197.476 54.7158 197.476 54.2732C197.476 53.7798 197.624 53.3878 197.919 53.0918C198.265 52.8452 198.609 52.6972 199.101 52.6972C199.741 52.6972 200.235 52.8452 200.627 53.2398C200.972 53.5838 201.169 54.0265 201.169 54.5198C201.169 54.7158 201.169 54.9118 201.12 55.0598C201.069 55.2572 201.069 55.4545 201.069 55.7012C201.464 55.8478 201.907 56.0438 202.349 56.2425C202.843 56.4892 203.237 56.7332 203.629 56.9798C204.075 57.2758 204.419 57.5705 204.664 57.9158C204.909 58.2598 205.059 58.6038 205.059 58.9985C205.059 59.4412 204.96 59.8358 204.713 60.2292C204.467 60.6238 204.221 61.0158 203.927 61.4105C203.581 61.8052 203.285 62.1998 203.089 62.5918C202.843 63.0852 202.744 63.4785 202.744 63.9225C202.744 64.0212 202.795 64.1185 202.843 64.2172C202.941 64.3652 203.089 64.4638 203.187 64.4638C203.335 64.4638 203.385 64.4132 203.481 64.3158C204.024 64.1185 204.517 63.7238 204.96 63.1838C205.451 62.5918 205.895 62.0012 206.288 61.4105C206.683 60.8692 207.027 60.3292 207.372 59.8838C207.668 59.4412 207.913 59.2452 208.111 59.2452C208.209 59.2452 208.257 59.2452 208.257 59.3438C208.307 59.3932 208.357 59.4412 208.455 59.4918Z" fill="#632C24"/>
</g>
<mask id="mask28_205_2" style="mask-type:luminance" maskUnits="userSpaceOnUse" x="83" y="-74" width="185" height="185">
<path d="M83.4795 110.86H267.758V-73.0644H83.4795V110.86Z" fill="white"/>
</mask>
<g mask="url(#mask28_205_2)">
<path fill-rule="evenodd" clip-rule="evenodd" d="M209.439 54.7158C209.439 54.6172 209.391 54.4692 209.341 54.2238C209.291 54.0265 209.144 53.9292 208.899 53.9292C208.8 53.9292 208.7 53.9772 208.652 54.1745C208.553 54.3212 208.553 54.4212 208.553 54.5198C208.553 54.6665 208.601 54.8145 208.7 55.0105C208.8 55.1585 208.996 55.2572 209.243 55.2572C209.341 55.2572 209.391 55.2092 209.391 55.0598C209.439 54.9118 209.439 54.8145 209.439 54.7158ZM217.808 59.4918C217.66 59.9345 217.464 60.3772 217.169 60.8692C216.921 61.3625 216.628 61.8532 216.283 62.2958C215.987 62.7892 215.643 63.2812 215.299 63.7745C214.952 64.2172 214.657 64.6118 214.313 64.9558C213.968 65.3492 213.573 65.6452 213.181 65.8918C212.836 66.1358 212.393 66.2358 211.901 66.2358C211.459 66.2358 211.113 66.1865 210.769 65.9892C210.424 65.8412 210.179 65.6452 209.98 65.3985C209.733 65.1532 209.587 64.8558 209.489 64.5118C209.391 64.1692 209.341 63.8732 209.341 63.5278C209.341 63.1332 209.391 62.6425 209.537 62.2478C209.685 61.8532 209.881 61.4612 210.08 61.0665C210.276 60.6732 210.523 60.2785 210.769 59.8838C211.013 59.4918 211.212 59.1465 211.408 58.7518C211.556 58.4078 211.655 58.1612 211.655 58.0132C211.655 57.8172 211.556 57.6705 211.311 57.5225C211.064 57.4238 210.769 57.2758 210.424 57.1772C210.08 57.0798 209.685 56.9318 209.243 56.7838C208.848 56.6372 208.453 56.4892 208.111 56.2425C207.767 56.0438 207.471 55.7492 207.224 55.4545C206.977 55.1105 206.879 54.7158 206.879 54.2732C206.879 53.7798 207.027 53.3878 207.321 53.0918C207.619 52.8452 208.011 52.6972 208.504 52.6972C209.144 52.6972 209.637 52.8452 209.98 53.2398C210.375 53.5838 210.571 54.0265 210.571 54.5198C210.571 54.7158 210.523 54.9118 210.523 55.0598C210.473 55.2572 210.473 55.4545 210.424 55.7012C210.867 55.8478 211.311 56.0438 211.753 56.2425C212.196 56.4892 212.64 56.7332 213.033 56.9798C213.427 57.2758 213.772 57.5705 214.019 57.9158C214.263 58.2598 214.411 58.6038 214.411 58.9985C214.411 59.4412 214.263 59.8358 214.019 60.2292C213.82 60.6238 213.525 61.0158 213.229 61.4105C212.935 61.8052 212.688 62.1998 212.441 62.5918C212.245 63.0852 212.097 63.4785 212.097 63.9225C212.097 64.0212 212.147 64.1185 212.245 64.2172C212.344 64.3652 212.441 64.4638 212.591 64.4638C212.688 64.4638 212.787 64.4132 212.887 64.3158C213.377 64.1185 213.82 63.7238 214.313 63.1838C214.853 62.5918 215.299 62.0012 215.691 61.4105C216.085 60.8692 216.431 60.3292 216.725 59.8838C217.069 59.4412 217.317 59.2452 217.464 59.2452C217.563 59.2452 217.611 59.2452 217.66 59.3438C217.711 59.3932 217.759 59.4412 217.808 59.4918Z" fill="#632C24"/>
</g>
<mask id="mask29_205_2" style="mask-type:luminance" maskUnits="userSpaceOnUse" x="83" y="-74" width="185" height="185">
<path d="M83.4795 110.86H267.758V-73.0644H83.4795V110.86Z" fill="white"/>
</mask>
<g mask="url(#mask29_205_2)">
<path fill-rule="evenodd" clip-rule="evenodd" d="M224.454 55.6518H224.208C223.913 55.6518 223.617 55.7012 223.224 55.8972C222.878 56.0945 222.536 56.2905 222.189 56.5865C221.894 56.8812 221.55 57.1772 221.254 57.5225C221.009 57.8665 220.762 58.2598 220.614 58.6038C220.762 58.7518 220.91 58.9505 221.057 59.0972C221.204 59.2452 221.402 59.3438 221.746 59.3438C222.141 59.3438 222.536 59.2452 222.928 58.9985C223.274 58.8025 223.617 58.5065 223.913 58.1612C224.158 57.8172 224.405 57.4718 224.602 57.1772C224.75 56.8332 224.848 56.5372 224.848 56.2905C224.848 56.0438 224.701 55.7998 224.454 55.6518ZM228.393 58.3598C228.637 58.1132 228.836 57.9652 228.936 57.9652C229.033 57.9652 229.132 58.1132 229.132 58.4572C229.132 58.8025 229.033 59.1972 228.836 59.5892C228.489 60.2785 228.146 60.9198 227.704 61.5585C227.309 62.1998 226.866 62.7892 226.374 63.3798C225.782 63.9705 225.242 64.4638 224.602 64.9558C224.012 65.4492 223.322 65.8412 222.584 66.1358C222.141 66.3345 221.698 66.4332 221.106 66.4332C220.418 66.4332 219.777 66.3345 219.186 66.0878C218.645 65.8918 218.154 65.5958 217.758 65.2025C217.365 64.8078 217.069 64.3652 216.824 63.8732C216.628 63.3318 216.48 62.7892 216.48 62.1998C216.48 60.7212 216.774 59.3932 217.414 58.1612C218.006 56.8812 219.038 55.8972 220.418 55.1105C220.861 54.8638 221.304 54.6665 221.796 54.5198C222.289 54.3212 222.83 54.2732 223.42 54.2732C224.306 54.2732 224.996 54.4692 225.488 54.8638C225.93 55.2572 226.177 55.8972 226.177 56.8332C226.177 56.9812 226.177 57.1772 226.129 57.3745C225.734 58.4572 225.192 59.2452 224.454 59.7372C223.716 60.2785 222.73 60.5732 221.5 60.5732C221.254 60.5732 221.009 60.5252 220.762 60.4758C220.514 60.3772 220.22 60.3292 219.925 60.2785C219.678 60.6732 219.53 61.1158 219.433 61.5092C219.334 61.9038 219.285 62.3465 219.285 62.7892C219.285 63.5278 219.433 64.0692 219.777 64.5118C220.073 64.9558 220.565 65.1532 221.204 65.1532C221.746 65.1532 222.289 65.0038 222.78 64.7585C223.322 64.5118 223.816 64.1692 224.306 63.7745C224.75 63.3318 225.192 62.8892 225.634 62.3465C226.029 61.8532 226.472 61.3625 226.818 60.8198C227.161 60.3292 227.457 59.8838 227.704 59.4412C227.998 58.9985 228.196 58.6038 228.393 58.3598Z" fill="#632C24"/>
</g>
<mask id="mask30_205_2" style="mask-type:luminance" maskUnits="userSpaceOnUse" x="83" y="-74" width="185" height="185">
<path d="M83.4795 110.86H267.758V-73.0644H83.4795V110.86Z" fill="white"/>
</mask>
<g mask="url(#mask30_205_2)">
<path fill-rule="evenodd" clip-rule="evenodd" d="M230.164 54.7158C230.116 54.6172 230.067 54.4692 230.017 54.2238C229.968 54.0265 229.82 53.9292 229.575 53.9292C229.475 53.9292 229.427 53.9772 229.327 54.1745C229.279 54.3212 229.279 54.4212 229.279 54.5198C229.279 54.6665 229.327 54.8145 229.427 55.0105C229.525 55.1585 229.673 55.2572 229.968 55.2572C230.067 55.2572 230.116 55.2092 230.116 55.0598C230.116 54.9118 230.164 54.8145 230.164 54.7158ZM238.533 59.4918C238.387 59.9345 238.189 60.3772 237.895 60.8692C237.648 61.3625 237.352 61.8532 237.008 62.2958C236.712 62.7892 236.368 63.2812 235.973 63.7745C235.629 64.2172 235.284 64.6118 235.039 64.9558C234.695 65.3492 234.299 65.6452 233.908 65.8918C233.512 66.1358 233.119 66.2358 232.628 66.2358C232.183 66.2358 231.791 66.1865 231.495 65.9892C231.149 65.8412 230.903 65.6452 230.657 65.3985C230.46 65.1532 230.312 64.8558 230.215 64.5118C230.116 64.1692 230.067 63.8732 230.067 63.5278C230.067 63.1332 230.116 62.6425 230.264 62.2478C230.412 61.8532 230.607 61.4612 230.805 61.0665C231.001 60.6732 231.249 60.2785 231.495 59.8838C231.74 59.4918 231.939 59.1465 232.133 58.7518C232.281 58.4078 232.381 58.1612 232.381 58.0132C232.381 57.8172 232.233 57.6705 232.035 57.5225C231.791 57.4238 231.495 57.2758 231.149 57.1772C230.755 57.0798 230.412 56.9318 229.968 56.7838C229.575 56.6372 229.18 56.4892 228.836 56.2425C228.441 56.0438 228.147 55.7492 227.951 55.4545C227.703 55.1105 227.605 54.7158 227.605 54.2732C227.605 53.7798 227.752 53.3878 228.048 53.0918C228.344 52.8452 228.737 52.6972 229.18 52.6972C229.869 52.6972 230.363 52.8452 230.707 53.2398C231.101 53.5838 231.249 54.0265 231.249 54.5198V55.0598C231.199 55.2572 231.149 55.4545 231.149 55.7012C231.592 55.8478 232.035 56.0438 232.48 56.2425C232.923 56.4892 233.365 56.7332 233.76 56.9798C234.152 57.2758 234.497 57.5705 234.743 57.9158C234.988 58.2598 235.088 58.6038 235.088 58.9985C235.088 59.4412 234.988 59.8358 234.743 60.2292C234.547 60.6238 234.251 61.0158 233.956 61.4105C233.66 61.8052 233.415 62.1998 233.168 62.5918C232.923 63.0852 232.823 63.4785 232.823 63.9225C232.823 64.0212 232.872 64.1185 232.971 64.2172C233.071 64.3652 233.168 64.4638 233.316 64.4638C233.415 64.4638 233.512 64.4132 233.609 64.3158C234.055 64.1185 234.547 63.7238 235.039 63.1838C235.532 62.5918 235.925 62.0012 236.416 61.4105C236.811 60.8692 237.155 60.3292 237.451 59.8838C237.795 59.4412 238.043 59.2452 238.189 59.2452C238.288 59.2452 238.337 59.2452 238.387 59.3438C238.387 59.3932 238.435 59.4412 238.533 59.4918Z" fill="#632C24"/>
</g>
<mask id="mask31_205_2" style="mask-type:luminance" maskUnits="userSpaceOnUse" x="83" y="-74" width="185" height="185">
<path d="M83.4795 110.86H267.758V-73.0644H83.4795V110.86Z" fill="white"/>
</mask>
<g mask="url(#mask31_205_2)">
<path fill-rule="evenodd" clip-rule="evenodd" d="M244.686 56.9805C244.538 56.8818 244.39 56.8325 244.196 56.8325C243.852 56.8325 243.406 57.0792 242.817 57.5712C242.274 57.9658 241.734 58.5552 241.193 59.1965C240.652 59.8352 240.208 60.5738 239.814 61.3618C239.418 62.1005 239.224 62.8378 239.224 63.5272C239.224 64.1685 239.518 64.5605 240.108 64.7085C240.652 64.4138 241.142 64.1178 241.586 63.7738C241.98 63.4285 242.373 63.0365 242.72 62.5432C242.768 62.1485 242.914 61.7058 243.062 61.2152C243.21 60.7218 243.358 60.2298 243.604 59.7365C243.801 59.1965 243.998 58.7512 244.196 58.2605C244.39 57.8178 244.538 57.3752 244.686 56.9805ZM248.133 62.5432C248.281 62.3472 248.478 62.0512 248.673 61.7058C248.921 61.4112 249.118 61.0672 249.364 60.6725C249.658 60.3285 249.857 59.9832 250.053 59.6392C250.3 59.3445 250.448 59.0485 250.596 58.8018C250.694 58.6552 250.792 58.6552 250.889 58.8018C250.989 58.9498 251.086 59.0485 251.137 59.1458C251.137 59.2445 251.086 59.3445 251.037 59.5405C250.742 60.1805 250.398 60.9192 250.005 61.7058C249.51 62.4938 249.068 63.1845 248.526 63.8738C248.034 64.5125 247.493 65.1032 246.854 65.5458C246.264 65.9885 245.624 66.2352 244.933 66.2352C244.49 66.2352 244.096 66.0872 243.801 65.7925C243.506 65.4978 243.161 65.0538 242.768 64.5605C242.225 64.9552 241.684 65.3978 241.045 65.7432C240.454 66.1365 239.862 66.3338 239.27 66.3338C238.977 66.3338 238.681 66.2352 238.386 66.0872C238.09 65.8912 237.844 65.6938 237.6 65.3978C237.352 65.1032 237.154 64.7085 237.008 64.3165C236.81 63.9218 236.762 63.4285 236.762 62.9378C236.762 62.1005 236.91 61.2632 237.302 60.3778C237.648 59.4912 238.09 58.7032 238.681 57.9658C239.27 57.2752 239.961 56.6365 240.7 56.1432C241.438 55.7005 242.225 55.4538 243.062 55.4538C243.801 55.4538 244.538 55.6512 245.278 55.9952C245.524 55.7992 245.769 55.6018 246.017 55.3565C246.313 55.1592 246.606 55.0112 246.854 55.0112C247.002 55.0112 247.15 55.0592 247.296 55.1098C247.444 55.1592 247.592 55.2085 247.74 55.3058C247.888 55.4058 248.034 55.5045 248.133 55.6512C248.232 55.7992 248.281 55.9472 248.281 56.0952C248.281 56.2418 248.232 56.4392 248.133 56.6365C248.034 56.7845 247.937 56.9805 247.84 57.1285C247.641 57.6698 247.394 58.1618 247.198 58.6045C247.002 59.0485 246.754 59.5405 246.558 59.9832C246.412 60.4258 246.213 60.9192 246.065 61.3618C245.917 61.8538 245.769 62.3472 245.672 62.8885C245.574 63.1845 245.476 63.4285 245.476 63.6272C245.426 63.8232 245.426 64.0205 245.426 64.1685C245.426 64.5125 245.524 64.7085 245.769 64.7085C245.917 64.7085 246.114 64.6605 246.313 64.5125C246.508 64.4138 246.754 64.2178 246.952 64.0205C247.198 63.7738 247.394 63.5765 247.592 63.3312C247.789 63.0365 247.986 62.7898 248.133 62.5432Z" fill="#632C24"/>
</g>
<mask id="mask32_205_2" style="mask-type:luminance" maskUnits="userSpaceOnUse" x="83" y="-74" width="185" height="185">
<path d="M83.4795 110.86H267.758V-73.0644H83.4795V110.86Z" fill="white"/>
</mask>
<g mask="url(#mask32_205_2)">
<path d="M114.765 88.2208V91.4288C114.765 92.1341 114.843 92.5675 114.996 92.7288C115.207 92.9635 115.519 93.0808 115.932 93.0808H116.357V93.3848H111.631V93.0808H112.044C112.505 93.0808 112.837 92.9315 113.04 92.6315C113.153 92.4528 113.211 92.0528 113.211 91.4288V84.2955C113.211 83.6075 113.137 83.1781 112.991 83.0075C112.772 82.7648 112.456 82.6435 112.044 82.6435H111.631V82.3395H115.677C116.649 82.3395 117.427 82.4448 118.009 82.6555C118.293 82.7528 118.559 82.8888 118.805 83.0621C119.053 83.2368 119.268 83.4435 119.449 83.6821C119.632 83.9208 119.776 84.1848 119.881 84.4715C119.987 84.7595 120.039 85.0701 120.039 85.4021C120.039 85.8475 119.963 86.2568 119.808 86.6288C119.655 87.0021 119.432 87.3221 119.14 87.5888C118.848 87.8568 118.492 88.0648 118.071 88.2141C117.649 88.3648 117.167 88.4395 116.624 88.4395C116.097 88.4395 115.479 88.3661 114.765 88.2208ZM114.765 87.7475C115.057 87.8035 115.312 87.8461 115.531 87.8741C115.749 87.9021 115.94 87.9168 116.103 87.9168C116.385 87.9168 116.653 87.8581 116.904 87.7408C117.155 87.6235 117.376 87.4608 117.567 87.2541C117.756 87.0488 117.907 86.7995 118.016 86.5075C118.125 86.2155 118.18 85.8995 118.18 85.5595C118.18 85.1541 118.119 84.7941 117.997 84.4781C117.876 84.1621 117.711 83.8955 117.5 83.6755C117.289 83.4568 117.041 83.2915 116.759 83.1781C116.475 83.0648 116.167 83.0075 115.835 83.0075C115.56 83.0075 115.203 83.0568 114.765 83.1541V87.7475Z" fill="#632C24"/>
</g>
<mask id="mask33_205_2" style="mask-type:luminance" maskUnits="userSpaceOnUse" x="83" y="-74" width="185" height="185">
<path d="M83.4795 110.86H267.758V-73.0644H83.4795V110.86Z" fill="white"/>
</mask>
<g mask="url(#mask33_205_2)">
<path d="M125.373 92.3157C124.984 92.6077 124.671 92.8397 124.432 93.0144C124.192 93.189 124.024 93.2957 123.927 93.337C123.628 93.4744 123.316 93.5424 122.992 93.5424C122.732 93.5424 122.496 93.4957 122.281 93.4037C122.067 93.3104 121.88 93.1797 121.721 93.0144C121.564 92.8477 121.44 92.6477 121.351 92.413C121.263 92.1784 121.217 91.9144 121.217 91.6224C121.217 91.2824 121.284 90.9784 121.419 90.7117C121.552 90.4437 121.759 90.1997 122.037 89.977C122.317 89.7544 122.68 89.549 123.125 89.3624C123.823 89.0384 124.571 88.7304 125.373 88.4397V88.1477C125.373 87.7757 125.343 87.4637 125.283 87.2117C125.221 86.961 125.131 86.761 125.009 86.6104C124.887 86.461 124.741 86.3557 124.571 86.2944C124.401 86.2344 124.207 86.2037 123.988 86.2037C123.64 86.2037 123.364 86.297 123.161 86.4824C122.959 86.669 122.857 86.8797 122.857 87.1144L122.883 87.589C122.883 87.8397 122.82 88.0317 122.695 88.1664C122.568 88.2997 122.4 88.3664 122.189 88.3664C121.987 88.3664 121.821 88.2957 121.692 88.1544C121.561 88.0117 121.497 87.8197 121.497 87.577C121.497 87.3504 121.557 87.125 121.68 86.9024C121.801 86.6797 121.979 86.4784 122.213 86.301C122.449 86.1224 122.735 85.9784 123.071 85.869C123.407 85.7597 123.793 85.705 124.231 85.705C124.807 85.705 125.295 85.7904 125.696 85.961C126.096 86.1304 126.387 86.4224 126.564 86.8357C126.661 87.0704 126.709 87.5477 126.709 88.269V90.797C126.709 91.2264 126.716 91.5557 126.728 91.7877C126.74 92.0184 126.763 92.1864 126.795 92.2917C126.828 92.397 126.868 92.4597 126.916 92.4797C126.965 92.4997 127.025 92.5104 127.099 92.5104C127.156 92.5104 127.208 92.5024 127.257 92.4864C127.305 92.469 127.363 92.437 127.427 92.389C127.492 92.3397 127.567 92.273 127.652 92.1877C127.737 92.1037 127.848 91.9917 127.985 91.8544V92.3157C127.379 93.1264 126.799 93.5304 126.248 93.5304C125.989 93.5304 125.779 93.4397 125.616 93.257C125.455 93.0757 125.373 92.761 125.373 92.3157ZM125.373 91.781V88.937C124.807 89.165 124.159 89.4557 123.429 89.813C123.161 89.9504 122.953 90.145 122.803 90.3957C122.653 90.6464 122.579 90.9264 122.579 91.2344C122.579 91.429 122.611 91.609 122.676 91.7744C122.74 91.941 122.825 92.085 122.931 92.2064C123.036 92.3277 123.16 92.4224 123.301 92.4917C123.443 92.561 123.591 92.5957 123.745 92.5957C124.159 92.5957 124.701 92.3237 125.373 91.781Z" fill="#632C24"/>
</g>
<mask id="mask34_205_2" style="mask-type:luminance" maskUnits="userSpaceOnUse" x="83" y="-74" width="185" height="185">
<path d="M83.4795 110.86H267.758V-73.0644H83.4795V110.86Z" fill="white"/>
</mask>
<g mask="url(#mask34_205_2)">
<path d="M133.369 85.7053V88.2453H133.089C132.992 87.848 132.877 87.516 132.744 87.248C132.609 86.9813 132.461 86.7706 132.3 86.6173C132.137 86.4626 131.953 86.3533 131.746 86.288C131.54 86.224 131.316 86.192 131.072 86.192C130.878 86.192 130.704 86.22 130.55 86.276C130.396 86.3333 130.262 86.4066 130.149 86.4946C130.036 86.584 129.949 86.6853 129.888 86.7986C129.826 86.912 129.797 87.0293 129.797 87.152C129.797 87.3053 129.814 87.4466 129.852 87.576C129.888 87.7066 129.954 87.828 130.052 87.9413C130.149 88.0546 130.281 88.168 130.446 88.2813C130.613 88.3946 130.825 88.516 131.085 88.6453L132.276 89.2293C133.377 89.764 133.928 90.4733 133.928 91.356C133.928 91.696 133.857 92.0053 133.716 92.2853C133.573 92.5653 133.385 92.8013 133.15 92.996C132.916 93.1906 132.648 93.3426 132.348 93.452C132.049 93.5613 131.745 93.616 131.437 93.616C131.202 93.616 130.954 93.5973 130.696 93.5613C130.437 93.5253 130.161 93.4626 129.869 93.3733C129.78 93.348 129.7 93.328 129.626 93.312C129.553 93.296 129.489 93.288 129.432 93.288C129.31 93.288 129.213 93.356 129.14 93.4946H128.873V90.8333H129.14C129.213 91.2146 129.326 91.548 129.481 91.836C129.634 92.1226 129.813 92.3626 130.016 92.552C130.218 92.7426 130.442 92.8866 130.689 92.984C130.937 93.0813 131.19 93.1293 131.449 93.1293C131.636 93.1293 131.805 93.1013 131.96 93.0453C132.113 92.988 132.246 92.9093 132.36 92.808C132.474 92.7066 132.562 92.5866 132.628 92.4493C132.693 92.312 132.725 92.1653 132.725 92.012C132.725 91.8253 132.697 91.6573 132.64 91.508C132.584 91.3573 132.482 91.212 132.336 91.0706C132.19 90.928 131.99 90.78 131.734 90.6266C131.48 90.4733 131.149 90.2946 130.744 90.092C130.348 89.8973 130.025 89.7146 129.778 89.5453C129.532 89.3746 129.337 89.2053 129.194 89.0346C129.053 88.8653 128.958 88.6866 128.909 88.5C128.861 88.3133 128.837 88.1026 128.837 87.868C128.837 87.56 128.892 87.2746 129.001 87.012C129.11 86.748 129.266 86.52 129.468 86.3253C129.67 86.1306 129.91 85.9786 130.185 85.8693C130.461 85.76 130.765 85.7053 131.097 85.7053C131.202 85.7053 131.336 85.7213 131.497 85.7533C131.66 85.7866 131.824 85.8226 131.99 85.8626C132.156 85.904 132.308 85.94 132.445 85.972C132.584 86.0053 132.676 86.0213 132.725 86.0213C132.814 86.0213 132.881 86.0026 132.925 85.9666C132.97 85.9306 133.025 85.8426 133.089 85.7053H133.369Z" fill="#632C24"/>
</g>
<mask id="mask35_205_2" style="mask-type:luminance" maskUnits="userSpaceOnUse" x="83" y="-74" width="185" height="185">
<path d="M83.4795 110.86H267.758V-73.0644H83.4795V110.86Z" fill="white"/>
</mask>
<g mask="url(#mask35_205_2)">
<path d="M137.197 83.4817V85.9244H138.934V86.495H137.197V91.331C137.197 91.575 137.215 91.7764 137.251 91.939C137.287 92.1017 137.341 92.227 137.41 92.3164C137.478 92.4044 137.557 92.467 137.646 92.5044C137.735 92.5404 137.833 92.559 137.938 92.559C138.125 92.559 138.301 92.5044 138.466 92.395C138.633 92.2857 138.761 92.1217 138.849 91.903H139.165C138.979 92.4377 138.711 92.8377 138.363 93.1057C138.015 93.3724 137.654 93.507 137.282 93.507C136.853 93.507 136.509 93.3564 136.249 93.0564C135.99 92.7577 135.861 92.243 135.861 91.5137V86.495H134.669V86.2284C135.131 86.0497 135.546 85.7444 135.915 85.311C136.283 84.8777 136.626 84.267 136.942 83.4817H137.197Z" fill="#632C24"/>
</g>
<mask id="mask36_205_2" style="mask-type:luminance" maskUnits="userSpaceOnUse" x="83" y="-74" width="185" height="185">
<path d="M83.4795 110.86H267.758V-73.0644H83.4795V110.86Z" fill="white"/>
</mask>
<g mask="url(#mask36_205_2)">
<path d="M140.915 88.731C140.915 89.2897 140.99 89.7884 141.14 90.2257C141.29 90.663 141.488 91.0364 141.735 91.343C141.982 91.651 142.27 91.887 142.598 92.0484C142.926 92.2097 143.272 92.291 143.636 92.291C144.123 92.291 144.546 92.1577 144.907 91.891C145.267 91.623 145.568 91.1617 145.812 90.5057L146.067 90.663C146.011 91.0284 145.898 91.3857 145.727 91.739C145.556 92.091 145.34 92.407 145.076 92.6857C144.814 92.9657 144.508 93.191 144.159 93.3604C143.811 93.531 143.431 93.6164 143.018 93.6164C142.571 93.6164 142.152 93.5244 141.759 93.343C141.367 93.1604 141.022 92.9004 140.727 92.5644C140.431 92.2284 140.196 91.823 140.022 91.3497C139.847 90.8764 139.76 90.343 139.76 89.7524C139.76 89.1124 139.85 88.5404 140.028 88.039C140.206 87.5364 140.45 87.111 140.758 86.763C141.064 86.4137 141.427 86.151 141.844 85.9724C142.262 85.795 142.714 85.7057 143.199 85.7057C143.612 85.7057 143.994 85.7764 144.342 85.9177C144.69 86.0604 144.992 86.2617 145.247 86.5257C145.502 86.7884 145.703 87.107 145.848 87.479C145.994 87.8524 146.067 88.2697 146.067 88.731H140.915ZM140.915 88.2697H144.366C144.326 87.5804 144.162 87.0764 143.874 86.7564C143.586 86.4364 143.211 86.2764 142.75 86.2764C142.531 86.2764 142.316 86.3217 142.106 86.4097C141.895 86.499 141.707 86.6284 141.54 86.799C141.375 86.9697 141.235 87.1777 141.122 87.4244C141.008 87.6724 140.939 87.9537 140.915 88.2697Z" fill="#632C24"/>
</g>
<mask id="mask37_205_2" style="mask-type:luminance" maskUnits="userSpaceOnUse" x="83" y="-74" width="185" height="185">
<path d="M83.4795 110.86H267.758V-73.0644H83.4795V110.86Z" fill="white"/>
</mask>
<g mask="url(#mask37_205_2)">
<path d="M149.628 81.8048V91.6955C149.628 92.0368 149.646 92.2995 149.682 92.4861C149.718 92.6728 149.784 92.8115 149.877 92.9048C149.97 92.9981 150.093 93.0528 150.248 93.0688C150.401 93.0848 150.596 93.0928 150.83 93.0928V93.3848H147.173V93.0928C147.416 93.0928 147.61 93.0755 147.756 93.0381C147.902 93.0021 148.013 92.9315 148.09 92.8261C148.168 92.7208 148.218 92.5768 148.242 92.3941C148.266 92.2128 148.278 91.9795 148.278 91.6955V84.9275C148.278 84.4168 148.269 84.0221 148.249 83.7435C148.228 83.4635 148.196 83.2595 148.152 83.1288C148.106 82.9995 148.048 82.9248 147.976 82.9048C147.902 82.8848 147.813 82.8741 147.708 82.8741C147.554 82.8741 147.376 82.9181 147.173 83.0075L147.04 82.7155L149.264 81.8048H149.628Z" fill="#632C24"/>
</g>
<mask id="mask38_205_2" style="mask-type:luminance" maskUnits="userSpaceOnUse" x="83" y="-74" width="185" height="185">
<path d="M83.4795 110.86H267.758V-73.0644H83.4795V110.86Z" fill="white"/>
</mask>
<g mask="url(#mask38_205_2)">
<path d="M152.945 88.731C152.945 89.2897 153.019 89.7884 153.17 90.2257C153.319 90.663 153.518 91.0364 153.765 91.343C154.011 91.651 154.299 91.887 154.627 92.0484C154.955 92.2097 155.302 92.291 155.666 92.291C156.153 92.291 156.575 92.1577 156.937 91.891C157.297 91.623 157.598 91.1617 157.842 90.5057L158.097 90.663C158.041 91.0284 157.926 91.3857 157.757 91.739C157.586 92.091 157.37 92.407 157.106 92.6857C156.843 92.9657 156.538 93.191 156.189 93.3604C155.841 93.531 155.461 93.6164 155.047 93.6164C154.602 93.6164 154.182 93.5244 153.789 93.343C153.397 93.1604 153.051 92.9004 152.757 92.5644C152.461 92.2284 152.226 91.823 152.051 91.3497C151.877 90.8764 151.79 90.343 151.79 89.7524C151.79 89.1124 151.879 88.5404 152.058 88.039C152.235 87.5364 152.479 87.111 152.787 86.763C153.094 86.4137 153.457 86.151 153.874 85.9724C154.291 85.795 154.743 85.7057 155.229 85.7057C155.642 85.7057 156.023 85.7764 156.371 85.9177C156.719 86.0604 157.022 86.2617 157.277 86.5257C157.531 86.7884 157.733 87.107 157.878 87.479C158.023 87.8524 158.097 88.2697 158.097 88.731H152.945ZM152.945 88.2697H156.395C156.355 87.5804 156.191 87.0764 155.903 86.7564C155.615 86.4364 155.241 86.2764 154.779 86.2764C154.561 86.2764 154.346 86.3217 154.135 86.4097C153.925 86.499 153.737 86.6284 153.57 86.799C153.405 86.9697 153.265 87.1777 153.151 87.4244C153.038 87.6724 152.969 87.9537 152.945 88.2697Z" fill="#632C24"/>
</g>
<mask id="mask39_205_2" style="mask-type:luminance" maskUnits="userSpaceOnUse" x="83" y="-74" width="185" height="185">
<path d="M83.4795 110.86H267.758V-73.0644H83.4795V110.86Z" fill="white"/>
</mask>
<g mask="url(#mask39_205_2)">
<path d="M161.269 85.7053V87.3826C161.901 86.264 162.545 85.7053 163.201 85.7053C163.346 85.7053 163.482 85.7293 163.607 85.7786C163.733 85.8266 163.843 85.8933 163.935 85.9786C164.029 86.064 164.102 86.1613 164.154 86.2706C164.207 86.38 164.234 86.4946 164.234 86.6173C164.234 86.8266 164.163 87.0053 164.021 87.152C163.879 87.2973 163.711 87.3706 163.517 87.3706C163.427 87.3706 163.325 87.3413 163.207 87.2853C163.089 87.228 162.975 87.164 162.866 87.0906C162.757 87.0173 162.655 86.9533 162.563 86.896C162.47 86.84 162.399 86.8106 162.35 86.8106C162.205 86.8106 162.034 86.928 161.839 87.164C161.645 87.3986 161.455 87.6986 161.269 88.0626V91.6466C161.269 91.8653 161.283 92.064 161.311 92.2426C161.339 92.4213 161.398 92.5733 161.487 92.6986C161.577 92.824 161.709 92.9213 161.882 92.9906C162.057 93.0586 162.289 93.0933 162.581 93.0933V93.3853H158.753V93.0933C158.997 93.0933 159.193 93.0773 159.342 93.0453C159.493 93.012 159.611 92.948 159.701 92.8506C159.79 92.7533 159.851 92.6133 159.883 92.4306C159.915 92.2493 159.931 92.008 159.931 91.708V88.816C159.931 88.3786 159.926 88.0346 159.914 87.7826C159.902 87.532 159.887 87.3613 159.871 87.2733C159.79 86.9493 159.607 86.7866 159.325 86.7866C159.235 86.7866 159.146 86.7973 159.057 86.8173C158.967 86.8373 158.867 86.868 158.753 86.908L158.681 86.6173L160.929 85.7053H161.269Z" fill="#632C24"/>
</g>
<mask id="mask40_205_2" style="mask-type:luminance" maskUnits="userSpaceOnUse" x="83" y="-74" width="185" height="185">
<path d="M83.4795 110.86H267.758V-73.0644H83.4795V110.86Z" fill="white"/>
</mask>
<g mask="url(#mask40_205_2)">
<path d="M167.211 85.7053V91.696C167.211 92.052 167.233 92.3253 167.277 92.516C167.323 92.7066 167.391 92.844 167.484 92.9293C167.577 93.0146 167.695 93.0626 167.836 93.0746C167.979 93.0866 168.151 93.0933 168.353 93.0933V93.3853H164.732V93.0933C164.983 93.0933 165.184 93.0746 165.333 93.0386C165.483 93.0026 165.599 92.932 165.68 92.8253C165.76 92.7213 165.811 92.5773 165.832 92.3946C165.852 92.212 165.861 91.98 165.861 91.696V88.828C165.861 88.3586 165.853 87.9853 165.837 87.7106C165.821 87.4346 165.793 87.2306 165.752 87.0973C165.712 86.9626 165.653 86.8786 165.576 86.8413C165.499 86.8053 165.4 86.7866 165.279 86.7866C165.197 86.7866 165.115 86.7973 165.029 86.8173C164.944 86.8373 164.845 86.868 164.732 86.908L164.611 86.6173L166.859 85.7053H167.211ZM168.183 82.072L165.777 84.8786H165.497L166.36 82.072H168.183Z" fill="#632C24"/>
</g>
<mask id="mask41_205_2" style="mask-type:luminance" maskUnits="userSpaceOnUse" x="83" y="-74" width="185" height="185">
<path d="M83.4795 110.86H267.758V-73.0644H83.4795V110.86Z" fill="white"/>
</mask>
<g mask="url(#mask41_205_2)">
<path d="M173.505 92.3157C173.116 92.6077 172.802 92.8397 172.564 93.0144C172.324 93.189 172.156 93.2957 172.06 93.337C171.76 93.4744 171.448 93.5424 171.124 93.5424C170.864 93.5424 170.628 93.4957 170.413 93.4037C170.198 93.3104 170.012 93.1797 169.853 93.0144C169.696 92.8477 169.572 92.6477 169.482 92.413C169.394 92.1784 169.349 91.9144 169.349 91.6224C169.349 91.2824 169.416 90.9784 169.55 90.7117C169.684 90.4437 169.89 90.1997 170.169 89.977C170.449 89.7544 170.812 89.549 171.257 89.3624C171.953 89.0384 172.704 88.7304 173.505 88.4397V88.1477C173.505 87.7757 173.474 87.4637 173.414 87.2117C173.353 86.961 173.262 86.761 173.141 86.6104C173.018 86.461 172.873 86.3557 172.704 86.2944C172.533 86.2344 172.338 86.2037 172.12 86.2037C171.772 86.2037 171.496 86.297 171.293 86.4824C171.09 86.669 170.989 86.8797 170.989 87.1144L171.014 87.589C171.014 87.8397 170.952 88.0317 170.825 88.1664C170.7 88.2997 170.532 88.3664 170.321 88.3664C170.118 88.3664 169.953 88.2957 169.824 88.1544C169.693 88.0117 169.629 87.8197 169.629 87.577C169.629 87.3504 169.689 87.125 169.812 86.9024C169.933 86.6797 170.11 86.4784 170.345 86.301C170.581 86.1224 170.866 85.9784 171.202 85.869C171.538 85.7597 171.925 85.705 172.362 85.705C172.938 85.705 173.426 85.7904 173.826 85.961C174.228 86.1304 174.517 86.4224 174.696 86.8357C174.793 87.0704 174.841 87.5477 174.841 88.269V90.797C174.841 91.2264 174.848 91.5557 174.86 91.7877C174.872 92.0184 174.894 92.1864 174.926 92.2917C174.96 92.397 175 92.4597 175.048 92.4797C175.097 92.4997 175.157 92.5104 175.23 92.5104C175.288 92.5104 175.34 92.5024 175.389 92.4864C175.437 92.469 175.494 92.437 175.558 92.389C175.624 92.3397 175.698 92.273 175.784 92.1877C175.869 92.1037 175.98 91.9917 176.117 91.8544V92.3157C175.51 93.1264 174.93 93.5304 174.38 93.5304C174.121 93.5304 173.91 93.4397 173.748 93.257C173.586 93.0757 173.505 92.761 173.505 92.3157ZM173.505 91.781V88.937C172.938 89.165 172.29 89.4557 171.561 89.813C171.293 89.9504 171.085 90.145 170.934 90.3957C170.785 90.6464 170.71 90.9264 170.71 91.2344C170.71 91.429 170.742 91.609 170.808 91.7744C170.872 91.941 170.957 92.085 171.062 92.2064C171.168 92.3277 171.292 92.4224 171.433 92.4917C171.574 92.561 171.722 92.5957 171.877 92.5957C172.29 92.5957 172.833 92.3237 173.505 91.781Z" fill="#632C24"/>
</g>
<mask id="mask42_205_2" style="mask-type:luminance" maskUnits="userSpaceOnUse" x="83" y="-74" width="185" height="185">
<path d="M83.4795 110.86H267.758V-73.0644H83.4795V110.86Z" fill="white"/>
</mask>
<g mask="url(#mask42_205_2)">
<path d="M190.553 82.0965L190.845 85.5712H190.553C190.221 84.5512 189.749 83.8112 189.137 83.3538C188.527 82.8965 187.783 82.6672 186.908 82.6672C186.26 82.6672 185.68 82.7952 185.171 83.0498C184.66 83.3058 184.227 83.6578 183.871 84.1072C183.513 84.5565 183.243 85.0872 183.056 85.6992C182.869 86.3112 182.776 86.9738 182.776 87.6858C182.776 88.7312 182.983 89.6912 183.396 90.5658C183.599 91.0032 183.836 91.3805 184.107 91.6965C184.379 92.0125 184.672 92.2738 184.988 92.4792C185.304 92.6858 185.635 92.8378 185.979 92.9352C186.323 93.0325 186.669 93.0818 187.017 93.0818C187.828 93.0818 188.589 92.8792 189.301 92.4738V89.2778C189.301 89.0018 189.292 88.7778 189.272 88.6032C189.251 88.4298 189.219 88.2912 189.175 88.1898C189.129 88.0885 189.075 88.0125 189.011 87.9592C188.945 87.9072 188.868 87.8565 188.779 87.8072C188.601 87.7178 188.293 87.6738 187.856 87.6738V87.3578H192.133V87.6738H191.927C191.74 87.6738 191.583 87.6938 191.452 87.7352C191.323 87.7752 191.216 87.8525 191.131 87.9658C191.045 88.0792 190.985 88.2405 190.948 88.4512C190.912 88.6618 190.893 88.9378 190.893 89.2778V92.6565C190.577 92.8258 190.268 92.9738 189.964 93.0992C189.66 93.2245 189.355 93.3245 189.047 93.3978C188.415 93.5592 187.739 93.6405 187.017 93.6405C186.093 93.6405 185.257 93.4992 184.508 93.2152C183.759 92.9312 183.117 92.5392 182.583 92.0365C182.048 91.5338 181.635 90.9432 181.343 90.2618C181.051 89.5818 180.905 88.8405 180.905 88.0378C180.905 87.0738 181.14 86.1432 181.609 85.2432C182.153 84.1898 182.911 83.3765 183.883 82.8018C184.692 82.3312 185.648 82.0965 186.749 82.0965C186.969 82.0965 187.163 82.1018 187.333 82.1152C187.504 82.1272 187.68 82.1512 187.861 82.1872C188.044 82.2245 188.243 82.2765 188.457 82.3458C188.672 82.4138 188.933 82.5058 189.241 82.6192C189.549 82.7405 189.756 82.7978 189.861 82.7885C189.957 82.7885 190.043 82.7418 190.116 82.6498C190.189 82.5565 190.233 82.3712 190.249 82.0965H190.553Z" fill="#632C24"/>
</g>
<mask id="mask43_205_2" style="mask-type:luminance" maskUnits="userSpaceOnUse" x="83" y="-74" width="185" height="185">
<path d="M83.4795 110.86H267.758V-73.0644H83.4795V110.86Z" fill="white"/>
</mask>
<g mask="url(#mask43_205_2)">
<path d="M196.532 85.7053C197.05 85.7053 197.528 85.8066 197.965 86.0093C198.404 86.212 198.781 86.4853 199.102 86.8293C199.422 87.1733 199.673 87.5786 199.856 88.044C200.037 88.5106 200.129 89.0026 200.129 89.5213C200.129 90.128 200.029 90.684 199.83 91.1853C199.633 91.688 199.362 92.1186 199.022 92.48C198.682 92.84 198.289 93.12 197.844 93.3186C197.398 93.516 196.933 93.616 196.446 93.616C195.936 93.616 195.465 93.5106 195.03 93.3C194.597 93.0893 194.225 92.8053 193.913 92.4493C193.601 92.0933 193.358 91.68 193.184 91.2093C193.01 90.74 192.922 90.2453 192.922 89.728C192.922 89.1933 193.016 88.684 193.202 88.2026C193.389 87.72 193.644 87.2933 193.968 86.92C194.292 86.548 194.673 86.252 195.11 86.0333C195.548 85.8146 196.021 85.7053 196.532 85.7053ZM196.277 86.24C196.041 86.24 195.814 86.2906 195.596 86.392C195.377 86.4933 195.182 86.6546 195.013 86.8786C194.842 87.1013 194.705 87.3906 194.6 87.7466C194.494 88.1026 194.441 88.536 194.441 89.0466C194.441 89.5733 194.497 90.0773 194.606 90.56C194.716 91.0413 194.872 91.4653 195.073 91.8293C195.276 92.1946 195.524 92.4853 195.814 92.704C196.106 92.9226 196.43 93.032 196.786 93.032C197.046 93.032 197.288 92.9813 197.51 92.88C197.733 92.78 197.925 92.616 198.088 92.388C198.249 92.1613 198.377 91.864 198.47 91.496C198.562 91.1266 198.609 90.6746 198.609 90.14C198.609 89.6053 198.557 89.1013 198.452 88.628C198.346 88.1533 198.194 87.74 197.996 87.388C197.797 87.036 197.554 86.756 197.266 86.5493C196.98 86.3426 196.649 86.24 196.277 86.24Z" fill="#632C24"/>
</g>
<mask id="mask44_205_2" style="mask-type:luminance" maskUnits="userSpaceOnUse" x="83" y="-74" width="185" height="185">
<path d="M83.4795 110.86H267.758V-73.0644H83.4795V110.86Z" fill="white"/>
</mask>
<g mask="url(#mask44_205_2)">
<path d="M207.759 85.924V90.444C207.759 90.9546 207.77 91.352 207.79 91.6346C207.81 91.9186 207.841 92.128 207.881 92.2613C207.922 92.3946 207.978 92.476 208.051 92.504C208.123 92.532 208.217 92.5466 208.33 92.5466C208.485 92.5466 208.675 92.5026 208.902 92.4133L209.011 92.692L206.775 93.616H206.41V92.036C206.078 92.392 205.797 92.676 205.566 92.8866C205.335 93.0973 205.126 93.2573 204.941 93.3666C204.754 93.476 204.579 93.5453 204.418 93.5733C204.255 93.6013 204.078 93.616 203.883 93.616C203.203 93.616 202.714 93.3626 202.419 92.856C202.123 92.3506 201.975 91.6346 201.975 90.712V87.3826C201.975 87.1306 201.955 86.9306 201.914 86.7813C201.874 86.6306 201.807 86.516 201.714 86.4346C201.621 86.3533 201.502 86.2986 201.355 86.2706C201.21 86.2413 201.027 86.228 200.809 86.228H200.711V85.924H203.325V90.9186C203.325 91.2746 203.358 91.564 203.427 91.7866C203.497 92.0093 203.587 92.1813 203.701 92.304C203.814 92.4253 203.946 92.5066 204.095 92.5466C204.246 92.5866 204.402 92.6066 204.563 92.6066C204.798 92.6066 205.062 92.5346 205.354 92.388C205.645 92.2426 205.998 91.9626 206.41 91.5506V87.3333C206.41 87.1226 206.394 86.9466 206.362 86.8053C206.33 86.664 206.269 86.5493 206.179 86.4653C206.09 86.38 205.969 86.3186 205.815 86.2826C205.661 86.2466 205.463 86.228 205.219 86.228V85.924H207.759Z" fill="#632C24"/>
</g>
<mask id="mask45_205_2" style="mask-type:luminance" maskUnits="userSpaceOnUse" x="83" y="-74" width="185" height="185">
<path d="M83.4795 110.86H267.758V-73.0644H83.4795V110.86Z" fill="white"/>
</mask>
<g mask="url(#mask45_205_2)">
<path d="M211.733 85.7053V87.3826C212.365 86.264 213.009 85.7053 213.665 85.7053C213.81 85.7053 213.946 85.7293 214.072 85.7786C214.198 85.8266 214.308 85.8933 214.4 85.9786C214.493 86.064 214.566 86.1613 214.62 86.2706C214.672 86.38 214.698 86.4946 214.698 86.6173C214.698 86.8266 214.628 87.0053 214.485 87.152C214.344 87.2973 214.176 87.3706 213.981 87.3706C213.892 87.3706 213.789 87.3413 213.672 87.2853C213.554 87.228 213.44 87.164 213.332 87.0906C213.221 87.0173 213.12 86.9533 213.028 86.896C212.934 86.84 212.864 86.8106 212.814 86.8106C212.669 86.8106 212.498 86.928 212.304 87.164C212.11 87.3986 211.92 87.6986 211.733 88.0626V91.6466C211.733 91.8653 211.748 92.064 211.776 92.2426C211.804 92.4213 211.862 92.5733 211.952 92.6986C212.041 92.824 212.173 92.9213 212.346 92.9906C212.521 93.0586 212.754 93.0933 213.045 93.0933V93.3853H209.218V93.0933C209.461 93.0933 209.657 93.0773 209.808 93.0453C209.957 93.012 210.077 92.948 210.165 92.8506C210.254 92.7533 210.316 92.6133 210.348 92.4306C210.38 92.2493 210.397 92.008 210.397 91.708V88.816C210.397 88.3786 210.39 88.0346 210.378 87.7826C210.366 87.532 210.352 87.3613 210.336 87.2733C210.254 86.9493 210.073 86.7866 209.789 86.7866C209.7 86.7866 209.61 86.7973 209.521 86.8173C209.433 86.8373 209.332 86.868 209.218 86.908L209.145 86.6173L211.393 85.7053H211.733Z" fill="#632C24"/>
</g>
<mask id="mask46_205_2" style="mask-type:luminance" maskUnits="userSpaceOnUse" x="83" y="-74" width="185" height="185">
<path d="M83.4795 110.86H267.758V-73.0644H83.4795V110.86Z" fill="white"/>
</mask>
<g mask="url(#mask46_205_2)">
<path d="M217.322 87.2972C217.598 87.0212 217.814 86.8065 217.973 86.6532C218.132 86.4985 218.234 86.4025 218.284 86.3612C218.525 86.1505 218.789 85.9892 219.073 85.8758C219.356 85.7625 219.636 85.7052 219.91 85.7052C220.381 85.7052 220.784 85.8412 221.121 86.1118C221.456 86.3838 221.681 86.7785 221.794 87.2972C222.069 86.9732 222.324 86.7052 222.554 86.4945C222.784 86.2838 223.004 86.1225 223.21 86.0092C223.417 85.8958 223.614 85.8172 223.805 85.7718C223.996 85.7278 224.192 85.7052 224.394 85.7052C224.67 85.7052 224.926 85.7518 225.166 85.8452C225.406 85.9385 225.614 86.0918 225.792 86.3065C225.97 86.5212 226.11 86.8065 226.212 87.1638C226.313 87.5198 226.364 87.9612 226.364 88.4878V91.6958C226.364 91.9385 226.369 92.1492 226.381 92.3278C226.393 92.5065 226.436 92.6518 226.509 92.7652C226.582 92.8785 226.693 92.9612 226.844 93.0145C226.994 93.0665 227.205 93.0932 227.481 93.0932V93.3852H223.8V93.0932H223.958C224.153 93.0932 224.317 93.0772 224.456 93.0452C224.593 93.0118 224.704 92.9478 224.784 92.8505C224.865 92.7532 224.922 92.6132 224.96 92.4305C224.996 92.2492 225.014 92.0038 225.014 91.6958V88.4878C225.014 88.1318 224.986 87.8385 224.929 87.6065C224.873 87.3758 224.792 87.1918 224.686 87.0545C224.581 86.9158 224.452 86.8212 224.297 86.7692C224.145 86.7158 223.97 86.6892 223.776 86.6892C223.629 86.6892 223.486 86.7038 223.35 86.7318C223.213 86.7598 223.068 86.8132 222.918 86.8905C222.768 86.9665 222.608 87.0705 222.433 87.1998C222.258 87.3292 222.065 87.5278 221.856 87.7958V91.6958C221.856 91.9638 221.86 92.1718 221.868 92.3212C221.876 92.4718 221.896 92.5852 221.929 92.6625C221.961 92.7385 222.002 92.7972 222.049 92.8385C222.098 92.8785 222.166 92.9238 222.256 92.9718C222.41 93.0532 222.678 93.0932 223.058 93.0932V93.3852H219.29V93.0932C219.584 93.0932 219.813 93.0732 219.977 93.0332C220.144 92.9918 220.265 92.9185 220.342 92.8132C220.42 92.7092 220.466 92.5652 220.482 92.3825C220.498 92.1998 220.508 91.9718 220.508 91.6958V88.4878C220.508 88.1398 220.477 87.8505 220.416 87.6185C220.354 87.3878 220.268 87.2025 220.154 87.0598C220.041 86.9185 219.906 86.8172 219.753 86.7558C219.6 86.6958 219.429 86.6652 219.242 86.6652C219.057 86.6652 218.87 86.6972 218.684 86.7625C218.497 86.8278 218.32 86.9105 218.149 87.0118C217.978 87.1132 217.821 87.2238 217.676 87.3452C217.53 87.4678 217.412 87.5852 217.322 87.6985V91.6958C217.322 91.9465 217.33 92.1492 217.348 92.3038C217.364 92.4572 217.388 92.5785 217.42 92.6678C217.453 92.7572 217.496 92.8238 217.548 92.8692C217.601 92.9132 217.66 92.9518 217.724 92.9838C217.853 93.0572 218.125 93.0932 218.537 93.0932V93.3852H214.844V93.0932C215.096 93.0932 215.296 93.0745 215.445 93.0385C215.596 93.0025 215.71 92.9318 215.792 92.8265C215.873 92.7212 215.925 92.5785 215.95 92.4012C215.974 92.2225 215.986 91.9878 215.986 91.6958V88.8518C215.986 88.3665 215.978 87.9852 215.962 87.7105C215.945 87.4345 215.916 87.2278 215.87 87.0905C215.826 86.9532 215.765 86.8678 215.689 86.8358C215.612 86.8025 215.513 86.7865 215.39 86.7865C215.318 86.7865 215.237 86.7972 215.148 86.8172C215.058 86.8372 214.957 86.8678 214.844 86.9078L214.722 86.6172L216.97 85.7052H217.322V87.2972Z" fill="#632C24"/>
</g>
<mask id="mask47_205_2" style="mask-type:luminance" maskUnits="userSpaceOnUse" x="83" y="-74" width="185" height="185">
<path d="M83.4795 110.86H267.758V-73.0644H83.4795V110.86Z" fill="white"/>
</mask>
<g mask="url(#mask47_205_2)">
<path d="M229.328 88.731C229.328 89.2897 229.403 89.7884 229.553 90.2257C229.703 90.663 229.901 91.0364 230.148 91.343C230.396 91.651 230.683 91.887 231.012 92.0484C231.339 92.2097 231.685 92.291 232.049 92.291C232.537 92.291 232.96 92.1577 233.319 91.891C233.68 91.623 233.983 91.1617 234.225 90.5057L234.48 90.663C234.424 91.0284 234.311 91.3857 234.14 91.739C233.971 92.091 233.753 92.407 233.489 92.6857C233.227 92.9657 232.921 93.191 232.573 93.3604C232.224 93.531 231.844 93.6164 231.431 93.6164C230.985 93.6164 230.565 93.5244 230.173 93.343C229.779 93.1604 229.436 92.9004 229.14 92.5644C228.844 92.2284 228.609 91.823 228.435 91.3497C228.26 90.8764 228.175 90.343 228.175 89.7524C228.175 89.1124 228.263 88.5404 228.441 88.039C228.62 87.5364 228.863 87.111 229.169 86.763C229.479 86.4137 229.84 86.151 230.259 85.9724C230.675 85.795 231.127 85.7057 231.613 85.7057C232.025 85.7057 232.407 85.7764 232.755 85.9177C233.104 86.0604 233.404 86.2617 233.66 86.5257C233.916 86.7884 234.115 87.107 234.261 87.479C234.408 87.8524 234.48 88.2697 234.48 88.731H229.328ZM229.328 88.2697H232.779C232.739 87.5804 232.575 87.0764 232.287 86.7564C231.999 86.4364 231.625 86.2764 231.163 86.2764C230.944 86.2764 230.729 86.3217 230.519 86.4097C230.309 86.499 230.12 86.6284 229.953 86.799C229.788 86.9697 229.649 87.1777 229.535 87.4244C229.421 87.6724 229.352 87.9537 229.328 88.2697Z" fill="#632C24"/>
</g>
<mask id="mask48_205_2" style="mask-type:luminance" maskUnits="userSpaceOnUse" x="83" y="-74" width="185" height="185">
<path d="M83.4795 110.86H267.758V-73.0644H83.4795V110.86Z" fill="white"/>
</mask>
<g mask="url(#mask48_205_2)">
<path d="M237.639 83.4817V85.9244H239.378V86.495H237.639V91.331C237.639 91.575 237.658 91.7764 237.694 91.939C237.731 92.1017 237.783 92.227 237.853 92.3164C237.922 92.4044 238.001 92.467 238.089 92.5044C238.178 92.5404 238.275 92.559 238.381 92.559C238.567 92.559 238.743 92.5044 238.909 92.395C239.075 92.2857 239.203 92.1217 239.293 91.903H239.607C239.422 92.4377 239.155 92.8377 238.806 93.1057C238.458 93.3724 238.097 93.507 237.725 93.507C237.295 93.507 236.951 93.3564 236.691 93.0564C236.433 92.7577 236.303 92.243 236.303 91.5137V86.495H235.111V86.2284C235.574 86.0497 235.989 85.7444 236.358 85.311C236.726 84.8777 237.069 84.267 237.385 83.4817H237.639Z" fill="#632C24"/>
</g>
</g>
<defs>
<clipPath id="clip0_205_2">
<rect width="271.978" height="137.822" fill="white"/>
</clipPath>
</defs>
</svg>
